<svg id="Layer_1" data-name="Layer 1" xmlns="http://www.w3.org/2000/svg" viewBox="0 0 480 480.05"><path d="M404.1,386.67l-17.42,17.42a28.37,28.37,0,0,0-2.86,1.9,193.19,193.19,0,0,1-76.94,40.37c-2.72.72-3.94,1.88-4.64,4.61a77.14,77.14,0,0,1-13.79,28.09c-16.09,20.93-42.78,22.73-61.29,4-8.87-9-14.15-20-17.4-32.08-.74-2.73-1.95-3.87-4.65-4.58A189.08,189.08,0,0,1,142.45,417c-5.81-4.17-11.42-8.62-17.12-13L107.9,386.67a21.66,21.66,0,0,0-1.63-2.55,193.9,193.9,0,0,1-40.84-78,4.44,4.44,0,0,0-3.64-3.7,79.57,79.57,0,0,1-28.54-13.74c-21.16-16-23.13-42.87-4.28-61.53,9-8.88,20-14.2,32.06-17.43a5.57,5.57,0,0,0,4.61-4.63,189.57,189.57,0,0,1,29.3-62.67c4.17-5.82,8.64-11.42,13-17.13l17.43-17.42a29.25,29.25,0,0,0,2.84-1.9A192.67,192.67,0,0,1,205.5,65.54a5,5,0,0,0,4.16-4.14c3.55-13.22,9.52-25.13,19.69-34.62C243.6,13.49,263.42,12.31,279,24c12.63,9.42,19.25,22.7,23.36,37.44a5.07,5.07,0,0,0,4.15,4.16,189.16,189.16,0,0,1,63,29.39c5.83,4.15,11.43,8.63,17.13,13l17.42,17.42a16.09,16.09,0,0,0,1.39,2.26,192.82,192.82,0,0,1,41.18,78.64c.56,2.13,1.69,2.81,3.56,3.3a80,80,0,0,1,28.53,13.78c21.18,16,23.15,43,4.29,61.52-9,8.86-20,14.17-32.08,17.41a5.57,5.57,0,0,0-4.6,4.64,189.35,189.35,0,0,1-29.31,62.66C412.89,375.35,408.43,381,404.1,386.67ZM200,200.05c-.16-1.19-.24-1.92-.36-2.65-3.67-23.48,0-45.4,13.57-65.31a5.6,5.6,0,0,0,.2-4.11c-1.48-5.16-3.68-10.15-4.74-15.38-1.51-7.49-2.24-15.13-3.36-23.1a172,172,0,0,0-77,48.22,170.11,170.11,0,0,0-39,68.21c14,.23,27,2.58,39.48,7.82.9.38,2.4-.09,3.38-.62,4.62-2.47,9-5.5,13.74-7.6C163.17,197.92,181.1,196.66,200,200.05Zm222.68,5.88a172.61,172.61,0,0,0-50-79.05,170.31,170.31,0,0,0-66.6-37.51c-.24,14.11-2.59,27.27-8,39.83-.34.77.18,2.21.75,3,12.58,18.31,16.57,38.61,14.19,60.42-.26,2.36-.61,4.72-1,7.3,1-.12,1.63-.17,2.24-.27,23.63-3.75,45.7-.1,65.7,13.66a3.78,3.78,0,0,0,3.07.44C395.56,208.49,408.6,206.17,422.69,205.93ZM89.66,307.1a171.3,171.3,0,0,0,49.81,78.12,168.63,168.63,0,0,0,66.47,37.35c.24-14.07,2.59-27.11,7.88-39.57a3.81,3.81,0,0,0-.52-3.06c-13.65-19.89-17.31-41.84-13.68-65.33a21.51,21.51,0,0,0,.1-2.62c-1.46.24-2.59.44-3.73.61-19.32,2.81-37.85.47-55.29-8.65-3.5-1.83-6.62-5.49-10.16-5.82-3.71-.36-7.61,2.68-11.58,3.52C109.36,303.67,99.66,305.27,89.66,307.1Zm333.31-1c-14.33-.24-27.37-2.55-39.82-7.82a4.24,4.24,0,0,0-3.38.61c-18.57,12.69-39.12,16.66-61.19,14.1-2.1-.25-4.2-.55-6.46-.84.06.89.06,1.4.14,1.89,3.86,23.75.2,45.93-13.6,66.07-.65,1-.5,2.93,0,4.13A100,100,0,0,1,305.94,419c0,1.09.2,2.17.37,3.87C364.6,403.16,403.2,364.63,423,306.06ZM288.22,198.88c6.08-19.87.86-43.63-12.59-58.33-4.13-4.5-4.72-9.22-1.72-14.81,10.45-19.49,11.4-39.87,5.46-60.78-2.22-7.85-5.91-15-12-20.73-7.4-6.94-15.65-7-22.84.11a33.36,33.36,0,0,0-6.32,8.15c-12.29,23.68-12.48,47.67-.88,71.62,3.79,7.82,3.34,11.16-2.34,18-13.93,16.7-15.83,36-11.57,57C245.2,187.82,266.6,187.81,288.22,198.88ZM223.42,313c-4.24,21.39-2.28,40.95,12.34,57.79,4.55,5.23,5.55,9.63,2.41,15.36-9.85,18-11.17,37-6.67,56.7,2.12,9.22,5.8,17.8,12.72,24.59,7.41,7.28,15.92,7.67,23,.26a45.51,45.51,0,0,0,9.57-14.18c9-22.43,8.61-44.76-2.6-66.51-3.07-6-3-10.71.89-14.93,13-13.95,16.7-30.72,15.05-49.1-.29-3.24-1.06-6.43-1.66-10C266.61,324.19,245.2,324.12,223.42,313Zm89.49-24.33c21.82,4.17,41.62,2.16,58.52-13,4.47-4,9.22-4.81,14.47-1.91,17.86,9.87,36.77,11.27,56.31,6.93,9.63-2.14,18.57-5.94,25.57-13.25,6.76-7.05,7-15.11.36-22.26a33.09,33.09,0,0,0-8.65-6.92c-23.53-12.32-47.43-12.39-71.28-1.06-8.26,3.93-11.37,3.62-18.3-2.15-16.7-13.92-36-15.83-56.94-11.58C324.14,245.17,324.2,266.58,312.91,288.62ZM199.09,223.4c-21.83-4.23-41.62-2.2-58.52,13-4.45,4-9.25,4.82-14.47,1.9-16.43-9.18-34-10.91-52.17-7.84-11,1.86-21.35,5.68-29.4,13.9-7.38,7.52-7.46,16.08.12,23.34a41.65,41.65,0,0,0,11.89,8.26c22.92,9.87,45.79,9.81,68.27-1.6,6.22-3.17,10.88-3.11,15.26.86,16.54,15,36,17.79,57.08,13.62a9.69,9.69,0,0,0,1.7-.68C187.87,266.6,187.87,245.32,199.09,223.4Zm86.49,62.89a42.34,42.34,0,1,0-59.87-.72A42.47,42.47,0,0,0,285.58,286.29Z" transform="translate(-16.01 -15.95)"/></svg>