<svg id="Layer_1" data-name="Layer 1" xmlns="http://www.w3.org/2000/svg" viewBox="0 0 440.11 223.16"><defs><style>.cls-1{fill:none;stroke:#000;stroke-miterlimit:10;stroke-width:7px;}</style></defs><path class="cls-1" d="M470.86,297.08c-3.64,9.44-12.49,15.51-24.93,15.56h-.45c-6.15-.21-12.91-3.76-17.67-10.78-3.54-5.2-6.85-10.55-10.2-15.87a123.8,123.8,0,0,0-39.4-39.22c-5-3.15-10.07-6.26-15-9.59-8.95-6.08-12.74-15.45-10.63-25.71a24.27,24.27,0,0,1,5.26-10.68,22.94,22.94,0,0,1,13.48-8c10.77-1.84,19.49,1.62,25.71,10.75,6.37,9.35,12.26,19.05,19.09,28.05,10.26,13.52,24,23.11,38.36,31.82a76.5,76.5,0,0,1,9.36,6.34A23.91,23.91,0,0,1,470.86,297.08Z" transform="translate(-35.95 -152.39)"/><path class="cls-1" d="M159.87,219.22c-.15,6.13-3.8,13-11,17.87-5.36,3.6-10.85,7-16.31,10.49A121.46,121.46,0,0,0,95,284.94c-3.68,5.75-7.15,11.65-11.1,17.2-4.64,6.53-10.72,10.11-17.87,10.56a27.24,27.24,0,0,1-7.1-.53c-10-2-16.72-8.47-18.85-18.52-2.2-10.4,1-19.24,10-25.46,5.16-3.59,10.53-6.87,15.84-10.22a124.11,124.11,0,0,0,39.3-39.32c3.54-5.62,7-11.34,10.86-16.71a24,24,0,0,1,26.94-8.5,23.45,23.45,0,0,1,11,7.42C157.72,205.43,159.88,211.66,159.87,219.22Z" transform="translate(-35.95 -152.39)"/><path class="cls-1" d="M261.62,351a26.88,26.88,0,0,1-32-20.2,35.42,35.42,0,0,1,.06-13.3c2.64-15.7,5.71-31.33,8.69-47.37-3-15.91-5.83-31.64-8.92-47.32,0-.12,0-.25-.07-.37-3-15,5.74-29.49,20-32.81,14.73-3.43,29.29,5.1,32.73,19.81a33.16,33.16,0,0,1,0,13.71s0,.06,0,.09c-3.65,17.77-8.76,35.43-6.67,53.75,1.57,13.87,4.55,27.58,7.15,41.31C285.43,333.56,276.59,347.57,261.62,351Z" transform="translate(-35.95 -152.39)"/><path class="cls-1" d="M445.93,312.64h-.45c-6.15-.21-12.91-3.76-17.67-10.78-3.54-5.2-6.85-10.55-10.2-15.87a123.8,123.8,0,0,0-39.4-39.22c-5-3.15-10.07-6.26-15-9.59-8.95-6.08-12.74-15.45-10.63-25.71a24.27,24.27,0,0,1,5.26-10.68,226,226,0,0,0-54.42-15.54c-15.17-2.44-31.15,3.63-47.53,3.63s-32.2-6.07-47.37-3.63A225.6,225.6,0,0,0,154,200.86c3.74,4.57,5.9,10.8,5.89,18.36-.15,6.13-3.8,13-11,17.87-5.36,3.6-10.85,7-16.31,10.49A121.46,121.46,0,0,0,95,284.94c-3.68,5.75-7.15,11.65-11.1,17.2-4.64,6.53-10.72,10.11-17.87,10.56l-1.76.05c0,63.86,85.78,59.06,191.65,59.06s191.75,7.37,191.75-59.06ZM261.62,351a26.88,26.88,0,0,1-32-20.2,35.42,35.42,0,0,1,.06-13.3c2.64-15.7,5.71-31.33,8.69-47.37-3-15.91-5.83-31.64-8.92-47.32,0-.12,0-.25-.07-.37-3-15,5.74-29.49,20-32.81,14.73-3.43,29.29,5.1,32.73,19.81a33.16,33.16,0,0,1,0,13.71s0,.06,0,.09c-3.65,17.77-8.76,35.43-6.67,53.75,1.57,13.87,4.55,27.58,7.15,41.31C285.43,333.56,276.59,347.57,261.62,351ZM83.93,302.14c-4.64,6.53-10.72,10.11-17.87,10.56l-1.76.05m19.63-10.61c-4.64,6.53-10.72,10.11-17.87,10.56l-1.76.05" transform="translate(-35.95 -152.39)"/><path class="cls-1" d="M303.49,183.47c0,.6,0,1.19,0,1.78-15.17-2.44-31.15,3.63-47.53,3.63s-32.2-6.07-47.37-3.63c0-.59,0-1.18,0-1.78,0-8.68,21.26-27.58,47.49-27.58S303.49,172.39,303.49,183.47Z" transform="translate(-35.95 -152.39)"/></svg>