<svg id="Layer_1" data-name="Layer 1" xmlns="http://www.w3.org/2000/svg" viewBox="0 0 458.36 457.91"><defs><style>.cls-1{fill:none;stroke:#000;stroke-miterlimit:10;}</style></defs><path class="cls-1" d="M436.88,293.81A185,185,0,0,1,293.8,436.88c1.82-16.67-.34-36.17-7.8-55.94,26.28-35,20.36-71,2.66-79.44-.91.65-1.83,1.27-2.77,1.86q-.79.51-1.62,1A53.32,53.32,0,0,1,256.62,312H256a55.86,55.86,0,0,1-10.42-1c-.65-.12-1.31-.25-2-.39l-1.5-.36-.12,0s0,0,0,0a52.51,52.51,0,0,1-17.85-8.09c-18.86,6.84-24.45,40.48.87,78.8-7.46,19.77-9.21,39.26-6.86,55.93A185,185,0,0,1,75,293.23c16.79,1.94,36.5-.18,56.5-7.73,35,26.28,70.54,20.77,78.94,3.07a56,56,0,0,1-.14-64.94c-6.84-18.86-40.48-24.45-78.8.87C111.59,217,92,215.27,75.23,217.69A185,185,0,0,1,218.32,75.1c-2,16.88.07,36.76,7.68,56.93-26.28,35-21,70.53-3.3,78.94h0a55.33,55.33,0,0,1,27.62-10.66c.75-.08,1.5-.15,2.26-.2l1.75-.08c.55,0,1.1,0,1.66,0l1.38,0c1.46,0,2.91.13,4.34.27.7.07,1.39.15,2.08.26s1.46.23,2.18.36l1.08.21a55.12,55.12,0,0,1,19.8,8.15c.59.39,1.17.79,1.74,1.19,18.86-6.84,23.72-40.11-1.6-78.43,7.61-20.17,9.27-40,6.71-56.93A185,185,0,0,1,436.87,218.17c-16.68-2.36-36.21-.62-56,6.85-38.32-25.32-72-19.73-78.8-.87.23.32.45.64.66,1a53.29,53.29,0,0,1,9.21,28c0,.48,0,.95.05,1.43s0,1,0,1.45,0,.93,0,1.4c0,1.27-.1,2.52-.22,3.77-.05.53-.11,1.05-.17,1.57q-.29,2.31-.75,4.56c-.12.66-.27,1.31-.44,2-.11.44-.22.89-.34,1.33s-.27,1-.42,1.45c0,.17-.09.34-.14.51s-.14.44-.22.65c-.26.86-.56,1.72-.89,2.56,0,.13-.09.26-.14.39l-.16.42-.15.35c-.18.45-.37.9-.56,1.34s-.36.82-.55,1.23a52,52,0,0,1-3,5.66c-.37.6-.75,1.2-1.14,1.79s-.79,1.18-1.2,1.75c8.4,17.7,44.35,23.61,79.39-2.67C400.67,293.49,420.19,295.65,436.88,293.81Z" transform="translate(-27 -27.53)"/><path class="cls-1" d="M312,256c0,.47,0,.93,0,1.4,0,1.27-.1,2.52-.22,3.77-.05.53-.11,1.05-.17,1.57q-.29,2.31-.75,4.56c-.12.66-.27,1.31-.44,2-.11.44-.22.89-.34,1.33s-.27,1-.42,1.45c0,.17-.09.34-.14.51s-.14.44-.22.65c-.26.86-.56,1.72-.89,2.56,0,.13-.09.26-.14.39l-.16.42-.15.35c-.18.45-.37.9-.56,1.34s-.36.82-.55,1.23a52,52,0,0,1-3,5.66c-.37.6-.75,1.2-1.14,1.79s-.79,1.18-1.2,1.75a56.42,56.42,0,0,1-12.81,12.81c-.91.65-1.83,1.27-2.77,1.86q-.79.51-1.62,1A55.8,55.8,0,0,1,256.62,312H256a55.86,55.86,0,0,1-10.42-1c-.65-.12-1.31-.25-2-.39l-1.5-.36-.12,0s0,0,0,0A56,56,0,0,1,222.7,211h0a55.33,55.33,0,0,1,27.62-10.66c.75-.08,1.5-.15,2.26-.2l1.75-.08c.55,0,1.1,0,1.66,0l1.38,0c1.46,0,2.91.13,4.34.27.7.07,1.39.15,2.08.26s1.46.23,2.18.36l1.08.21a55.12,55.12,0,0,1,19.8,8.15c.59.39,1.17.79,1.74,1.19a56.1,56.1,0,0,1,13.46,13.69c.23.32.45.64.66,1a55.71,55.71,0,0,1,9.21,28c0,.48,0,.95.05,1.43S312,255.51,312,256Z" transform="translate(-27 -27.53)"/><path class="cls-1" d="M210.44,288.57c-8.4,17.7-43.9,23.21-78.94-3.07-20,7.55-39.71,9.67-56.5,7.73C47.27,290,27.5,275.76,27.5,256.5s19.89-34.78,47.73-38.81c16.74-2.42,36.36-.7,56.27,6.81,38.32-25.32,72-19.73,78.8-.87a56,56,0,0,0,.14,64.94Z" transform="translate(-27 -27.53)"/><path class="cls-1" d="M484.86,257c0,19.37-20,33.7-48,36.79-16.69,1.84-36.21-.32-56-7.79-35,26.28-71,20.37-79.39,2.67.41-.57.82-1.16,1.2-1.75s.78-1.18,1.14-1.79a52,52,0,0,0,3-5.66,53.4,53.4,0,0,0,3.57-10.23c.17-.65.32-1.3.44-2q.46-2.25.75-4.56c.06-.52.12-1,.17-1.57.12-1.25.19-2.5.22-3.77,0-.47,0-.93,0-1.4s0-1,0-1.45,0-1-.05-1.43a53.29,53.29,0,0,0-9.21-28c-.21-.33-.43-.65-.66-1,6.84-18.86,40.48-24.45,78.8.87,19.8-7.47,39.33-9.21,56-6.85h0C464.85,222.14,484.86,237.65,484.86,257Z" transform="translate(-27 -27.53)"/><path class="cls-1" d="M303.81,285.15a55.71,55.71,0,0,0,3-5.66A52,52,0,0,1,303.81,285.15Z" transform="translate(-27 -27.53)"/><path class="cls-1" d="M306.83,279.49a56.54,56.54,0,0,0,3.57-10.23A53.4,53.4,0,0,1,306.83,279.49Z" transform="translate(-27 -27.53)"/><path class="cls-1" d="M286,380.94c7.46,19.77,9.62,39.27,7.8,55.94-3.07,28-17.41,48.06-36.8,48.06s-34.91-20.05-38.86-48.07c-2.35-16.67-.6-36.16,6.86-55.93-25.32-38.32-19.73-72-.87-78.8A52.51,52.51,0,0,0,242,310.23s0,0,0,0l.12,0,1.5.36c.65.14,1.3.28,2,.39A55.86,55.86,0,0,0,256,312h.62a53.63,53.63,0,0,0,29.27-8.64c.94-.59,1.86-1.21,2.77-1.86C306.36,309.9,312.28,345.9,286,380.94Z" transform="translate(-27 -27.53)"/><path class="cls-1" d="M256.46,312H256a55.86,55.86,0,0,1-10.42-1A61.92,61.92,0,0,0,256.46,312Z" transform="translate(-27 -27.53)"/><path class="cls-1" d="M288.6,210.46c-.57-.4-1.15-.8-1.74-1.19a55.12,55.12,0,0,0-19.8-8.15l-1.08-.21c-.72-.13-1.45-.25-2.18-.36s-1.38-.19-2.08-.26c-1.43-.14-2.88-.24-4.34-.27L256,200c-.55,0-1.11,0-1.66,0l-1.75.08c-.76,0-1.51.12-2.26.2A55.33,55.33,0,0,0,222.71,211h0c-17.69-8.41-23-43.91,3.3-78.94-7.61-20.17-9.71-40-7.68-56.93C221.61,47.6,235.84,28,255,28S289.53,47.6,293.71,75.1c2.56,16.88.9,36.76-6.71,56.93C312.32,170.35,307.46,203.62,288.6,210.46Z" transform="translate(-27 -27.53)"/><path class="cls-1" d="M222.71,211a55.33,55.33,0,0,1,27.62-10.66A59.5,59.5,0,0,0,222.71,211Z" transform="translate(-27 -27.53)"/><path class="cls-1" d="M286.86,209.27a57.08,57.08,0,0,0-19.8-8.15A55.12,55.12,0,0,1,286.86,209.27Z" transform="translate(-27 -27.53)"/></svg>