<?xml version="1.0" encoding="utf-8"?>
<!-- Generator: Adobe Illustrator 23.0.1, SVG Export Plug-In . SVG Version: 6.00 Build 0)  -->
<svg version="1.1"
	 id="svg602" inkscape:version="0.48.3.1 r9886" sodipodi:docname="_svgclean2.svg" sodipodi:version="0.34" xmlns:cc="http://creativecommons.org/ns#" xmlns:dc="http://purl.org/dc/elements/1.1/" xmlns:inkscape="http://www.inkscape.org/namespaces/inkscape" xmlns:rdf="http://www.w3.org/1999/02/22-rdf-syntax-ns#" xmlns:sodipodi="http://sodipodi.sourceforge.net/DTD/sodipodi-0.dtd"
	 xmlns="http://www.w3.org/2000/svg" xmlns:xlink="http://www.w3.org/1999/xlink" x="0px" y="0px" viewBox="0 0 461.4 93"
	 style="enable-background:new 0 0 461.4 93;" xml:space="preserve">
<style type="text/css">
	.st0{fill-rule:evenodd;clip-rule:evenodd;fill:#CC3186;}
	.st1{fill-rule:evenodd;clip-rule:evenodd;fill:#FFFFFF;}
	.st2{fill-rule:evenodd;clip-rule:evenodd;fill:#E88139;}
	.st3{fill-rule:evenodd;clip-rule:evenodd;fill:#79155B;}
</style>
<sodipodi:namedview  id="base" inkscape:current-layer="svg602" inkscape:cx="372.69332" inkscape:cy="-414.08233" inkscape:window-height="645" inkscape:window-maximized="0" inkscape:window-width="674" inkscape:window-x="0" inkscape:window-y="0" inkscape:zoom="0.22425739" showgrid="false">
	</sodipodi:namedview>
<g>
	<g id="g1576" transform="translate(18.385 -.91592)">
		<g id="g1132" transform="translate(-52.116,-22.025)">
			<g id="g1022" transform="translate(0 .0046997)">
				<g id="g693" transform="matrix(-.18738 0 0 -.10183 259.51 132.54)">
					<g id="g667" transform="translate(-6.7574,149.81)">
						<path id="path606" inkscape:connector-curvature="0" sodipodi:nodetypes="ccccccccc" class="st0" d="M912.9,203.3
							c2.1,89.1-156,187.8-153.9,276.9c2.1,89.1,164.5,168.6,166.5,257.7c7.3-0.1,14.7-0.3,22-0.4c7.3-0.1,14.7-0.3,22-0.4
							C967.4,648,809.1,565,806.9,475.9c-2.1-89.1,152-184.3,149.9-273.4c-7.3,0.1-14.7,0.3-22,0.4
							C927.6,203.1,920.3,203.2,912.9,203.3L912.9,203.3z"/>
						<path id="path607" inkscape:connector-curvature="0" sodipodi:nodetypes="ccccccccc" class="st1" d="M291.1,114.6
							c104.9,0,217.8,136.2,322.9,136.2s201.8-136.2,306.7-136.2V77.1c-104.9,0-205.8,132.8-310.7,132.8S396.1,77.1,291.1,77.1
							C291.1,77.1,291.1,114.6,291.1,114.6z"/>
						<path id="path608" inkscape:connector-curvature="0" sodipodi:nodetypes="ccccccccc" class="st0" d="M302,737.9
							c0-89.1,160.4-185,160.4-274.2c0-89.1-160.4-171.4-160.4-260.5h-44c0,89.1,156.4,174.8,156.4,263.9S258,648.7,258,737.9H302
							L302,737.9z"/>
						<path id="path609" inkscape:connector-curvature="0" sodipodi:nodetypes="ccccccccc" class="st2" d="M291.1,52.3
							c104.9,0,217.8,136.2,322.7,136.2S815.6,52.3,920.6,52.3V14.8c-104.9,0-205.8,132.8-310.7,132.8S396,14.8,291,14.8
							C291.1,14.8,291.1,52.3,291.1,52.3z"/>
						<path id="path651" inkscape:connector-curvature="0" sodipodi:nodetypes="ccccccccc" class="st0" d="M291.1,240.6
							c104.9,0,217.8,136.2,322.9,136.2c104.9,0,201.8-136.2,306.7-136.2v-37.5c-104.9,0-205.8,132.8-310.7,132.8
							S396.1,203.1,291.1,203.1C291.1,203.1,291.1,240.6,291.1,240.6z"/>
						<path id="path652" inkscape:connector-curvature="0" sodipodi:nodetypes="ccccccccc" class="st1" d="M291.1,178.3
							c104.9,0,218,136.2,322.9,136.2s201.8-136.2,306.7-136.2v-37.5c-104.9,0-205.8,132.8-310.7,132.8S396.1,140.8,291.1,140.8
							C291.1,140.8,291.1,178.3,291.1,178.3z"/>
						<path id="path661" inkscape:connector-curvature="0" sodipodi:nodetypes="ccccccccc" class="st0" d="M912.9,203.3
							c2.1,89.1-156,187.8-153.9,276.9c2.1,89.1,164.5,168.6,166.5,257.7c7.3-0.1,14.7-0.3,22-0.4c7.3-0.1,14.7-0.3,22-0.4
							C967.4,648,809.1,565,806.9,475.9c-2.1-89.1,152-184.3,149.9-273.4c-7.3,0.1-14.7,0.3-22,0.4
							C927.6,203.1,920.3,203.2,912.9,203.3L912.9,203.3z"/>
						<path id="path662" inkscape:connector-curvature="0" sodipodi:nodetypes="ccccccccc" class="st1" d="M291.1,114.6
							c104.9,0,217.8,136.2,322.9,136.2c104.9,0,201.8-136.2,306.7-136.2V77.1c-104.9,0-205.8,132.8-310.7,132.8
							S396.1,77.1,291.1,77.1C291.1,77.1,291.1,114.6,291.1,114.6z"/>
						<path id="path663" inkscape:connector-curvature="0" sodipodi:nodetypes="ccccccccc" class="st0" d="M302,737.9
							c0-89.1,160.4-185,160.4-274.2c0-89.1-160.4-171.4-160.4-260.5h-44c0,89.1,156.4,174.8,156.4,263.9S258,648.7,258,737.9H302
							L302,737.9z"/>
						<path id="path664" inkscape:connector-curvature="0" sodipodi:nodetypes="ccccccccc" class="st2" d="M291.1,52.3
							c104.9,0,217.8,136.2,322.9,136.2c104.9,0,201.8-136.2,306.7-136.2V14.8c-104.9,0-205.8,132.8-310.7,132.8
							S396.1,14.8,291.1,14.8C291.1,14.8,291.1,52.3,291.1,52.3z"/>
						<path id="path665" inkscape:connector-curvature="0" sodipodi:nodetypes="ccccccccc" class="st0" d="M291.1,240.6
							c104.9,0,217.8,136.2,322.9,136.2c104.9,0,201.8-136.2,306.7-136.2v-37.5c-104.9,0-205.8,132.8-310.7,132.8
							S396.1,203.1,291.1,203.1C291.1,203.1,291.1,240.6,291.1,240.6z"/>
						<path id="path666" inkscape:connector-curvature="0" sodipodi:nodetypes="ccccccccc" class="st1" d="M291.1,178.3
							c104.9,0,217.8,136.2,322.9,136.2c104.9,0,201.8-136.2,306.7-136.2v-37.5c-104.9,0-205.8,132.8-310.7,132.8
							S396.1,140.8,291.1,140.8C291.1,140.8,291.1,178.3,291.1,178.3z"/>
					</g>
					<g id="g680" transform="matrix(-1 0 0 -.99858 741.1 1090.5)">
						<path id="path681" inkscape:connector-curvature="0" sodipodi:nodetypes="ccccccccc" class="st0" d="M444.6,203.3
							c2.1,89.1-156,187.7-153.9,276.8c2.1,89.1,164.5,168.6,166.5,257.7c7.3-0.1,14.7-0.3,22-0.4c7.3-0.1,14.7-0.3,22-0.4
							c-2.1-89.1-160.5-172.1-162.6-261.2c-2.1-89.1,152-184.3,149.9-273.4c-7.3,0.1-14.7,0.3-22,0.4
							C459.3,203.1,452,203.2,444.6,203.3L444.6,203.3z"/>
						<path id="path682" inkscape:connector-curvature="0" sodipodi:nodetypes="ccccccccc" class="st1" d="M-177.2,114.6
							c104.9,0,217.8,136.2,322.9,136.2s201.8-136.2,306.7-136.2V77.1c-104.9,0-205.8,132.8-310.7,132.8S-72.2,77.1-177.2,77.1
							C-177.2,77.1-177.2,114.6-177.2,114.6z"/>
						<path id="path683" inkscape:connector-curvature="0" sodipodi:nodetypes="ccccccccc" class="st0" d="M-166.3,737.9
							c0-89.1,160.4-185,160.4-274.2c0-89.1-160.4-171.4-160.4-260.5h-44C-210.3,292.3-54,378-54,467.1s-156.4,181.6-156.4,270.8
							H-166.3L-166.3,737.9z"/>
						<path id="path684" inkscape:connector-curvature="0" sodipodi:nodetypes="ccccccccc" class="st2" d="M-177.2,52.3
							c104.9,0,217.8,136.2,322.7,136.2S347.3,52.3,452.2,52.3V14.8c-104.9,0-205.8,132.8-310.7,132.8S-72.3,14.8-177.4,14.8
							C-177.2,14.8-177.2,52.3-177.2,52.3z"/>
						<path id="path685" inkscape:connector-curvature="0" sodipodi:nodetypes="ccccccccc" class="st0" d="M-177.2,240.6
							c104.9,0,217.8,136.2,322.9,136.2c104.9,0,201.8-136.2,306.7-136.2v-37.5c-104.9,0-205.8,132.8-310.7,132.8
							S-72.2,203.1-177.2,203.1C-177.2,203.1-177.2,240.6-177.2,240.6z"/>
						<path id="path686" inkscape:connector-curvature="0" sodipodi:nodetypes="ccccccccc" class="st1" d="M-177.2,178.3
							c104.9,0,218,136.2,322.9,136.2s201.8-136.2,306.7-136.2v-37.5c-104.9,0-205.8,132.8-310.7,132.8S-72.2,140.8-177.2,140.8
							C-177.2,140.8-177.2,178.3-177.2,178.3z"/>
						<path id="path687" inkscape:connector-curvature="0" sodipodi:nodetypes="ccccccccc" class="st0" d="M444.6,203.3
							c2.1,89.1-156,187.7-153.9,276.8c2.1,89.1,164.5,168.6,166.5,257.7c7.3-0.1,14.7-0.3,22-0.4c7.3-0.1,14.7-0.3,22-0.4
							c-2.1-89.1-160.5-172.1-162.6-261.2c-2.1-89.1,152-184.3,149.9-273.4c-7.3,0.1-14.7,0.3-22,0.4
							C459.3,203.1,452,203.2,444.6,203.3L444.6,203.3z"/>
						<path id="path688" inkscape:connector-curvature="0" sodipodi:nodetypes="ccccccccc" class="st1" d="M-177.2,114.6
							c104.9,0,217.8,136.2,322.9,136.2c104.9,0,201.8-136.2,306.7-136.2V77.1C347.4,77.1,246.5,210,141.6,210
							S-72.2,77.2-177.2,77.2C-177.2,77.1-177.2,114.6-177.2,114.6z"/>
						<path id="path689" inkscape:connector-curvature="0" sodipodi:nodetypes="ccccccccc" class="st0" d="M-166.3,737.9
							c0-89.1,160.4-185,160.4-274.2c0-89.1-160.4-171.4-160.4-260.5h-44C-210.3,292.3-54,378-54,467.1s-156.4,181.6-156.4,270.8
							H-166.3L-166.3,737.9z"/>
						<path id="path690" inkscape:connector-curvature="0" sodipodi:nodetypes="ccccccccc" class="st2" d="M-177.2,52.3
							c104.9,0,217.8,136.2,322.9,136.2c104.9,0,201.8-136.2,306.7-136.2V14.8c-104.9,0-205.8,132.8-310.7,132.8
							S-72.2,14.8-177.2,14.8C-177.2,14.8-177.2,52.3-177.2,52.3z"/>
						<path id="path691" inkscape:connector-curvature="0" sodipodi:nodetypes="ccccccccc" class="st0" d="M-177.2,240.6
							c104.9,0,217.8,136.2,322.9,136.2c104.9,0,201.8-136.2,306.7-136.2v-37.5c-104.9,0-205.8,132.8-310.7,132.8
							S-72.2,203.1-177.2,203.1C-177.2,203.1-177.2,240.6-177.2,240.6z"/>
						<path id="path692" inkscape:connector-curvature="0" sodipodi:nodetypes="ccccccccc" class="st1" d="M-177.2,178.3
							c104.9,0,217.8,136.2,322.9,136.2c104.9,0,201.8-136.2,306.7-136.2v-37.5c-104.9,0-205.8,132.8-310.7,132.8
							S-72.2,140.8-177.2,140.8C-177.2,140.8-177.2,178.3-177.2,178.3z"/>
					</g>
				</g>
				<g id="g831" transform="matrix(.18738 0 0 -.10203 22.475 132.69)">
					<g id="g832" transform="translate(-6.7574,149.81)">
						<path id="path833" inkscape:connector-curvature="0" sodipodi:nodetypes="ccccccccc" class="st0" d="M350.4,203.3
							c2.1,89.1-156,187.8-153.9,276.9S361,648.8,363,737.9c7.3-0.1,14.7-0.3,22-0.4c7.3-0.1,14.7-0.3,22-0.4
							C404.9,648,246.5,565,244.4,475.9c-2.1-89.1,152-184.3,149.9-273.4c-7.3,0.1-14.7,0.3-22,0.4
							C365.1,203.1,357.8,203.2,350.4,203.3L350.4,203.3z"/>
						<path id="path834_1_" inkscape:connector-curvature="0" sodipodi:nodetypes="ccccccccc" class="st1" d="M51.4,250.8
							c105,0,201.8-136.2,306.7-136.2V77.1c-104.9,0-205.8,132.8-310.7,132.8"/>
						<path id="path835_2_" inkscape:connector-curvature="0" sodipodi:nodetypes="ccccccccc" class="st0" d="M-148.1,467.1"/>
						<path id="path835_1_" inkscape:connector-curvature="0" sodipodi:nodetypes="ccccccccc" class="st0" d="M-100.1,463.7"/>
						<path id="path836_1_" inkscape:connector-curvature="0" sodipodi:nodetypes="ccccccccc" class="st2" d="M51.3,188.5
							c104.9,0,201.8-136.2,306.7-136.2V14.8c-104.9,0-205.8,132.8-310.7,132.8"/>
						<path id="path837_1_" inkscape:connector-curvature="0" sodipodi:nodetypes="ccccccccc" class="st0" d="M51.4,376.8
							c104.9,0,201.8-136.2,306.7-136.2v-37.5c-104.9,0-205.8,132.8-310.7,132.8"/>
						<path id="path838_1_" inkscape:connector-curvature="0" sodipodi:nodetypes="ccccccccc" class="st1" d="M51.4,314.5
							c104.9,0,201.8-136.2,306.7-136.2v-37.5c-104.9,0-205.8,132.8-310.7,132.8"/>
						<path id="path839" inkscape:connector-curvature="0" sodipodi:nodetypes="ccccccccc" class="st0" d="M350.4,203.3
							c2.1,89.1-156,187.8-153.9,276.9S361,648.8,363,737.9c7.3-0.1,14.7-0.3,22-0.4c7.3-0.1,14.7-0.3,22-0.4
							C404.9,648,246.5,565,244.4,475.9c-2.1-89.1,152-184.3,149.9-273.4c-7.3,0.1-14.7,0.3-22,0.4
							C365.1,203.1,357.8,203.2,350.4,203.3L350.4,203.3z"/>
						<path id="path840_1_" inkscape:connector-curvature="0" sodipodi:nodetypes="ccccccccc" class="st1" d="M51.4,250.8
							c104.9,0,201.8-136.2,306.7-136.2V77.1C253.3,77.1,152.3,210,47.4,210"/>
						<path id="path841_2_" inkscape:connector-curvature="0" sodipodi:nodetypes="ccccccccc" class="st0" d="M-148.1,467.1"/>
						<path id="path841_1_" inkscape:connector-curvature="0" sodipodi:nodetypes="ccccccccc" class="st0" d="M-100.1,463.7"/>
						<path id="path842_1_" inkscape:connector-curvature="0" sodipodi:nodetypes="ccccccccc" class="st2" d="M51.4,188.5
							c104.9,0,201.8-136.2,306.7-136.2V14.8c-104.9,0-205.8,132.8-310.7,132.8"/>
						<path id="path843_1_" inkscape:connector-curvature="0" sodipodi:nodetypes="ccccccccc" class="st0" d="M51.4,376.8
							c104.9,0,201.8-136.2,306.7-136.2v-37.5c-104.9,0-205.8,132.8-310.7,132.8"/>
						<path id="path844_1_" inkscape:connector-curvature="0" sodipodi:nodetypes="ccccccccc" class="st1" d="M51.4,314.5
							c104.9,0,201.8-136.2,306.7-136.2v-37.5c-104.9,0-205.8,132.8-310.7,132.8"/>
					</g>
					<g id="g845" transform="matrix(-1 0 0 -.99858 741.1 1090.5)">
						<path id="path846_2_" inkscape:connector-curvature="0" sodipodi:nodetypes="ccccccccc" class="st0" d="M901.1,475.9"/>
						<path id="path846_1_" inkscape:connector-curvature="0" sodipodi:nodetypes="ccccccccc" class="st0" d="M853.2,480.2"/>
						<path id="path847_1_" inkscape:connector-curvature="0" sodipodi:nodetypes="ccccccccc" class="st1" d="M704.1,209.9
							c-104.9,0-213.8-132.8-318.9-132.8c0,0,0,37.5,0,37.5c104.9,0,217.8,136.2,322.9,136.2"/>
						<path id="path848" inkscape:connector-curvature="0" sodipodi:nodetypes="ccccccccc" class="st0" d="M396.2,737.9
							c0-89.1,160.4-185,160.4-274.2c0-89.1-160.4-171.4-160.4-260.5h-44c0,89.1,156.4,174.8,156.4,263.9S352.2,648.7,352.2,737.9
							H396.2L396.2,737.9z"/>
						<path id="path849_1_" inkscape:connector-curvature="0" sodipodi:nodetypes="ccccccccc" class="st2" d="M704.1,147.6
							c-104.9,0-213.8-132.8-318.9-132.8c0,0,0,37.5,0,37.5c104.9,0,217.8,136.2,322.9,136.2"/>
						<path id="path850_1_" inkscape:connector-curvature="0" sodipodi:nodetypes="ccccccccc" class="st0" d="M704.1,335.9
							c-104.9,0-213.8-132.8-318.9-132.8c0,0,0,37.5,0,37.5c104.9,0,217.8,136.2,322.9,136.2"/>
						<path id="path851_1_" inkscape:connector-curvature="0" sodipodi:nodetypes="ccccccccc" class="st1" d="M704.1,273.6
							c-104.9,0-213.8-132.8-318.9-132.8c0,0,0,37.5,0,37.5c104.9,0,218,136.2,322.9,136.2"/>
						<path id="path852_2_" inkscape:connector-curvature="0" sodipodi:nodetypes="ccccccccc" class="st0" d="M901.1,475.9"/>
						<path id="path852_1_" inkscape:connector-curvature="0" sodipodi:nodetypes="ccccccccc" class="st0" d="M853.2,480.2"/>
						<path id="path854" inkscape:connector-curvature="0" sodipodi:nodetypes="ccccccccc" class="st0" d="M396.2,737.9
							c0-89.1,160.4-185,160.4-274.2c0-89.1-160.4-171.4-160.4-260.5h-44c0,89.1,156.4,174.8,156.4,263.9S352.2,648.7,352.2,737.9
							H396.2L396.2,737.9z"/>
						<path id="path855_1_" inkscape:connector-curvature="0" sodipodi:nodetypes="ccccccccc" class="st2" d="M704.1,147.6
							c-104.9,0-213.8-132.8-318.9-132.8c0,0,0,37.5,0,37.5c104.9,0,217.8,136.2,322.9,136.2"/>
						<path id="path856_1_" inkscape:connector-curvature="0" sodipodi:nodetypes="ccccccccc" class="st0" d="M704.1,335.9
							c-104.9,0-213.8-132.8-318.9-132.8c0,0,0,37.5,0,37.5c104.9,0,217.8,136.2,322.9,136.2"/>
						<path id="path857_1_" inkscape:connector-curvature="0" sodipodi:nodetypes="ccccccccc" class="st1" d="M704.1,273.6
							c-104.9,0-213.8-132.8-318.9-132.8c0,0,0,37.5,0,37.5c104.9,0,217.8,136.2,322.9,136.2"/>
					</g>
				</g>
			</g>
			<g id="g1077" transform="matrix(.99999 0 0 1 198.63 .0049591)">
				<g id="g1078" transform="matrix(-.18738 0 0 -.10183 259.51 132.54)">
					<g id="g1079" transform="translate(-6.7574,149.81)">
						<path id="path1080" inkscape:connector-curvature="0" sodipodi:nodetypes="ccccccccc" class="st0" d="M724.8,203.3
							c2.1,89.1-156,187.7-153.9,276.8s164.4,168.6,166.5,257.7c7.3-0.1,14.7-0.3,22-0.4c7.3-0.1,14.7-0.3,22-0.4
							c-2.1-89.1-160.5-172.1-162.6-261.2c-2.1-89.1,152-184.3,149.9-273.4c-7.3,0.1-14.7,0.3-22,0.4
							C739.5,203.1,732.2,203.2,724.8,203.3L724.8,203.3z"/>
						<path id="path1081" inkscape:connector-curvature="0" sodipodi:nodetypes="ccccccccc" class="st1" d="M102.9,114.6
							c104.9,0,217.8,136.2,322.9,136.2s201.8-136.2,306.7-136.2V77.1c-104.9,0-205.8,132.8-310.7,132.8S208,77.1,102.9,77.1
							C102.9,77.1,102.9,114.6,102.9,114.6z"/>
						<path id="path1082" inkscape:connector-curvature="0" sodipodi:nodetypes="ccccccccc" class="st0" d="M113.9,737.9
							c0-89.1,160.4-185,160.4-274.2c0-89.1-160.4-171.4-160.4-260.5h-44c0,89.1,156.4,174.8,156.4,263.9S69.8,648.7,69.8,737.9
							H113.9L113.9,737.9z"/>
						<path id="path1083" inkscape:connector-curvature="0" sodipodi:nodetypes="ccccccccc" class="st2" d="M102.9,52.3
							c104.9,0,217.8,136.2,322.9,136.2c104.9,0,201.8-136.2,306.7-136.2V14.8c-104.9,0-205.8,132.8-310.7,132.8
							S208,14.8,102.9,14.8C102.9,14.8,102.9,52.3,102.9,52.3z"/>
						<path id="path1084" inkscape:connector-curvature="0" sodipodi:nodetypes="ccccccccc" class="st0" d="M102.9,240.6
							c104.9,0,217.8,136.2,322.9,136.2c104.9,0,201.8-136.2,306.7-136.2v-37.5c-104.9,0-205.8,132.8-310.7,132.8
							S208,203.1,102.9,203.1C102.9,203.1,102.9,240.6,102.9,240.6z"/>
						<path id="path1085" inkscape:connector-curvature="0" sodipodi:nodetypes="ccccccccc" class="st1" d="M102.9,178.3
							c104.9,0,218,136.2,322.9,136.2s201.8-136.2,306.7-136.2v-37.5c-104.9,0-205.8,132.8-310.7,132.8S208,140.8,102.9,140.8
							C102.9,140.8,102.9,178.3,102.9,178.3z"/>
						<path id="path1086" inkscape:connector-curvature="0" sodipodi:nodetypes="ccccccccc" class="st0" d="M724.8,203.3
							c2.1,89.1-156,187.7-153.9,276.8s164.4,168.6,166.5,257.7c7.3-0.1,14.7-0.3,22-0.4c7.3-0.1,14.7-0.3,22-0.4
							c-2.1-89.1-160.5-172.1-162.6-261.2c-2.1-89.1,152-184.3,149.9-273.4c-7.3,0.1-14.7,0.3-22,0.4
							C739.5,203.1,732.2,203.2,724.8,203.3L724.8,203.3z"/>
						<path id="path1087" inkscape:connector-curvature="0" sodipodi:nodetypes="ccccccccc" class="st1" d="M102.9,114.6
							c104.9,0,217.8,136.2,322.9,136.2c104.9,0,201.8-136.2,306.7-136.2V77.1c-104.9,0-205.8,132.8-310.7,132.8
							S208,77.1,102.9,77.1C102.9,77.1,102.9,114.6,102.9,114.6z"/>
						<path id="path1088" inkscape:connector-curvature="0" sodipodi:nodetypes="ccccccccc" class="st0" d="M113.9,737.9
							c0-89.1,160.4-185,160.4-274.2c0-89.1-160.4-171.4-160.4-260.5h-44c0,89.1,156.4,174.8,156.4,263.9S69.8,648.7,69.8,737.9
							H113.9L113.9,737.9z"/>
						<path id="path1089" inkscape:connector-curvature="0" sodipodi:nodetypes="ccccccccc" class="st2" d="M102.9,52.3
							c104.9,0,217.8,136.2,322.9,136.2c104.9,0,201.8-136.2,306.7-136.2V14.8c-104.9,0-205.8,132.8-310.7,132.8
							S208,14.8,102.9,14.8C102.9,14.8,102.9,52.3,102.9,52.3z"/>
						<path id="path1090" inkscape:connector-curvature="0" sodipodi:nodetypes="ccccccccc" class="st0" d="M102.9,240.6
							c104.9,0,217.8,136.2,322.9,136.2c104.9,0,201.8-136.2,306.7-136.2v-37.5c-104.9,0-205.8,132.8-310.7,132.8
							S208,203.1,102.9,203.1C102.9,203.1,102.9,240.6,102.9,240.6z"/>
						<path id="path1091" inkscape:connector-curvature="0" sodipodi:nodetypes="ccccccccc" class="st1" d="M102.9,178.3
							c104.9,0,217.8,136.2,322.9,136.2c104.9,0,201.8-136.2,306.7-136.2v-37.5c-104.9,0-205.8,132.8-310.7,132.8
							S208,140.8,102.9,140.8C102.9,140.8,102.9,178.3,102.9,178.3z"/>
					</g>
					<g id="g1092" transform="matrix(-1 0 0 -.99858 741.1 1090.5)">
						<path id="path1093" inkscape:connector-curvature="0" sodipodi:nodetypes="ccccccccc" class="st0" d="M632.7,203.3
							c2.1,89.1-156,187.7-153.9,276.8c2.1,89.1,164.5,168.6,166.5,257.7c7.3-0.1,14.7-0.3,22-0.4c7.3-0.1,14.7-0.3,22-0.4
							c-2.1-89.1-160.5-172.1-162.6-261.2s152-184.3,149.9-273.4c-7.3,0.1-14.7,0.3-22,0.4C647.4,203.1,640.1,203.2,632.7,203.3
							L632.7,203.3z"/>
						<path id="path1094" inkscape:connector-curvature="0" sodipodi:nodetypes="ccccccccc" class="st1" d="M10.9,114.6
							c104.9,0,217.8,136.2,322.9,136.2s201.8-136.2,306.7-136.2V77.1c-104.9,0-205.8,132.8-310.7,132.8S115.9,77.1,10.9,77.1
							C10.9,77.1,10.9,114.6,10.9,114.6z"/>
						<path id="path1095" inkscape:connector-curvature="0" sodipodi:nodetypes="ccccccccc" class="st0" d="M21.8,737.9
							c0-89.1,160.4-185,160.4-274.2c0-89.1-160.4-171.4-160.4-260.5h-44c0,89.1,156.4,174.8,156.4,263.9S-22.2,648.7-22.2,737.9
							H21.8L21.8,737.9z"/>
						<path id="path1096" inkscape:connector-curvature="0" sodipodi:nodetypes="ccccccccc" class="st2" d="M10.9,52.3
							c104.9,0,217.8,136.2,322.7,136.2S535.5,52.3,640.4,52.3V14.8c-104.9,0-205.8,132.8-310.7,132.8S115.8,14.8,10.8,14.8
							C10.9,14.8,10.9,52.3,10.9,52.3z"/>
						<path id="path1097" inkscape:connector-curvature="0" sodipodi:nodetypes="ccccccccc" class="st0" d="M10.9,240.6
							c104.9,0,217.8,136.2,322.9,136.2c104.9,0,201.8-136.2,306.7-136.2v-37.5c-104.9,0-205.8,132.8-310.7,132.8
							S115.9,203.1,10.9,203.1C10.9,203.1,10.9,240.6,10.9,240.6z"/>
						<path id="path1098" inkscape:connector-curvature="0" sodipodi:nodetypes="ccccccccc" class="st1" d="M10.9,178.3
							c104.9,0,217.8,136.2,322.9,136.2c104.9,0,201.8-136.2,306.7-136.2v-37.5c-104.9,0-205.8,132.8-310.7,132.8
							S115.9,140.8,10.9,140.8C10.9,140.8,10.9,178.3,10.9,178.3z"/>
						<path id="path1099" inkscape:connector-curvature="0" sodipodi:nodetypes="ccccccccc" class="st0" d="M632.7,203.3
							c2.1,89.1-156,187.7-153.9,276.8c2.1,89.1,164.5,168.6,166.5,257.7c7.3-0.1,14.7-0.3,22-0.4c7.3-0.1,14.7-0.3,22-0.4
							c-2.1-89.1-160.5-172.1-162.6-261.2s152-184.3,149.9-273.4c-7.3,0.1-14.7,0.3-22,0.4C647.4,203.1,640.1,203.2,632.7,203.3
							L632.7,203.3z"/>
						<path id="path1100" inkscape:connector-curvature="0" sodipodi:nodetypes="ccccccccc" class="st1" d="M10.9,114.6
							c104.9,0,217.8,136.2,322.9,136.2c104.9,0,201.8-136.2,306.7-136.2V77.1C535.6,77.1,434.7,210,329.6,210
							C224.7,210,115.8,77.2,10.8,77.2C10.9,77.1,10.9,114.6,10.9,114.6z"/>
						<path id="path1101" inkscape:connector-curvature="0" sodipodi:nodetypes="ccccccccc" class="st0" d="M21.8,737.9
							c0-89.1,160.4-185,160.4-274.2c0-89.1-160.4-171.4-160.4-260.5h-44c0,89.1,156.4,174.8,156.4,263.9S-22.2,648.7-22.2,737.9
							H21.8L21.8,737.9z"/>
						<path id="path1102" inkscape:connector-curvature="0" sodipodi:nodetypes="ccccccccc" class="st2" d="M10.9,52.3
							c104.9,0,217.8,136.2,322.9,136.2c104.9,0,201.8-136.2,306.7-136.2V14.8c-104.9,0-205.8,132.8-310.7,132.8
							S115.9,14.8,10.9,14.8C10.9,14.8,10.9,52.3,10.9,52.3z"/>
						<path id="path1103" inkscape:connector-curvature="0" sodipodi:nodetypes="ccccccccc" class="st0" d="M10.9,240.6
							c104.9,0,217.8,136.2,322.9,136.2c104.9,0,201.8-136.2,306.7-136.2v-37.5c-104.9,0-205.8,132.8-310.7,132.8
							S115.9,203.1,10.9,203.1C10.9,203.1,10.9,240.6,10.9,240.6z"/>
						<path id="path1104" inkscape:connector-curvature="0" sodipodi:nodetypes="ccccccccc" class="st1" d="M10.9,178.3
							c104.9,0,217.8,136.2,322.9,136.2c104.9,0,201.8-136.2,306.7-136.2v-37.5c-104.9,0-205.8,132.8-310.7,132.8
							S115.9,140.8,10.9,140.8C10.9,140.8,10.9,178.3,10.9,178.3z"/>
					</g>
				</g>
				<g id="g1105" transform="matrix(.18738 0 0 -.10203 22.475 132.69)">
					<g id="g1106" transform="translate(-6.7574,149.81)">
						<path id="path1107" inkscape:connector-curvature="0" sodipodi:nodetypes="ccccccccc" class="st0" d="M538.5,203.3
							c2.1,89.1-156,187.8-153.9,276.9c2.1,89.1,164.5,168.6,166.5,257.7c7.3-0.1,14.7-0.3,22-0.4c7.3-0.1,14.7-0.3,22-0.4
							C593.1,648,434.7,565,432.6,475.9s152-184.3,149.9-273.4c-7.3,0.1-14.7,0.3-22,0.4C553.3,203.1,546,203.2,538.5,203.3
							L538.5,203.3z"/>
						<path id="path1108" inkscape:connector-curvature="0" sodipodi:nodetypes="ccccccccc" class="st1" d="M-83.3,114.6
							c104.9,0,217.8,136.2,322.9,136.2s201.8-136.2,306.7-136.2V77.1c-104.9,0-205.8,132.8-310.7,132.8S21.7,77.1-83.3,77.1
							C-83.3,77.1-83.3,114.6-83.3,114.6z"/>
						<path id="path1109" inkscape:connector-curvature="0" sodipodi:nodetypes="ccccccccc" class="st0" d="M-72.3,737.9
							c0-89.1,160.4-185,160.4-274.2c0-89.1-160.4-171.4-160.4-260.5h-44C-116.4,292.3,40,378,40,467.1s-156.4,181.6-156.4,270.8
							H-72.3L-72.3,737.9z"/>
						<path id="path1110" inkscape:connector-curvature="0" sodipodi:nodetypes="ccccccccc" class="st2" d="M-83.3,52.3
							c104.9,0,217.8,136.2,322.7,136.2S441.3,52.3,546.2,52.3V14.8c-104.9,0-205.8,132.8-310.7,132.8S21.6,14.8-83.4,14.8
							C-83.3,14.8-83.3,52.3-83.3,52.3z"/>
						<path id="path1111" inkscape:connector-curvature="0" sodipodi:nodetypes="ccccccccc" class="st0" d="M-83.3,240.6
							c104.9,0,217.8,136.2,322.9,136.2c104.9,0,201.8-136.2,306.7-136.2v-37.5c-104.9,0-205.8,132.8-310.7,132.8
							S21.7,203.1-83.3,203.1C-83.3,203.1-83.3,240.6-83.3,240.6z"/>
						<path id="path1112" inkscape:connector-curvature="0" sodipodi:nodetypes="ccccccccc" class="st1" d="M-83.3,178.3
							c104.9,0,218,136.2,322.9,136.2s201.8-136.2,306.7-136.2v-37.5c-104.9,0-205.8,132.8-310.7,132.8S21.7,140.8-83.3,140.8
							C-83.3,140.8-83.3,178.3-83.3,178.3z"/>
						<path id="path1113" inkscape:connector-curvature="0" sodipodi:nodetypes="ccccccccc" class="st0" d="M538.5,203.3
							c2.1,89.1-156,187.8-153.9,276.9c2.1,89.1,164.5,168.6,166.5,257.7c7.3-0.1,14.7-0.3,22-0.4c7.3-0.1,14.7-0.3,22-0.4
							C593.1,648,434.7,565,432.6,475.9s152-184.3,149.9-273.4c-7.3,0.1-14.7,0.3-22,0.4C553.3,203.1,546,203.2,538.5,203.3
							L538.5,203.3z"/>
						<path id="path1114" inkscape:connector-curvature="0" sodipodi:nodetypes="ccccccccc" class="st1" d="M-83.3,114.6
							c104.9,0,217.8,136.2,322.9,136.2c104.9,0,201.8-136.2,306.7-136.2V77.1C441.4,77.1,340.5,210,235.6,210S21.7,77.2-83.3,77.2
							C-83.3,77.1-83.3,114.6-83.3,114.6z"/>
						<path id="path1115" inkscape:connector-curvature="0" sodipodi:nodetypes="ccccccccc" class="st0" d="M-72.3,737.9
							c0-89.1,160.4-185,160.4-274.2c0-89.1-160.4-171.4-160.4-260.5h-44C-116.4,292.3,40,378,40,467.1s-156.4,181.6-156.4,270.8
							H-72.3L-72.3,737.9z"/>
						<path id="path1116" inkscape:connector-curvature="0" sodipodi:nodetypes="ccccccccc" class="st2" d="M-83.3,52.3
							c104.9,0,217.8,136.2,322.9,136.2c104.9,0,201.8-136.2,306.7-136.2V14.8c-104.9,0-205.8,132.8-310.7,132.8
							S21.7,14.8-83.3,14.8C-83.3,14.8-83.3,52.3-83.3,52.3z"/>
						<path id="path1117" inkscape:connector-curvature="0" sodipodi:nodetypes="ccccccccc" class="st0" d="M-83.3,240.6
							c104.9,0,217.8,136.2,322.9,136.2c104.9,0,201.8-136.2,306.7-136.2v-37.5c-104.9,0-205.8,132.8-310.7,132.8
							S21.7,203.1-83.3,203.1C-83.3,203.1-83.3,240.6-83.3,240.6z"/>
						<path id="path1118" inkscape:connector-curvature="0" sodipodi:nodetypes="ccccccccc" class="st1" d="M-83.3,178.3
							c104.9,0,217.8,136.2,322.9,136.2c104.9,0,201.8-136.2,306.7-136.2v-37.5c-104.9,0-205.8,132.8-310.7,132.8
							S21.7,140.8-83.3,140.8C-83.3,140.8-83.3,178.3-83.3,178.3z"/>
					</g>
					<g id="g1119" transform="matrix(-1 0 0 -.99858 741.1 1090.5)">
						<path id="path1120" inkscape:connector-curvature="0" sodipodi:nodetypes="ccccccccc" class="st0" d="M818.9,203.3
							c2.1,89.1-156,187.8-153.9,276.9c2.1,89.1,164.5,168.6,166.5,257.7c7.3-0.1,14.7-0.3,22-0.4c7.3-0.1,14.7-0.3,22-0.4
							C873.5,648,715.1,565,713,475.9s152-184.3,149.9-273.4c-7.3,0.1-14.7,0.3-22,0.4C833.7,203.1,826.4,203.2,818.9,203.3
							L818.9,203.3z"/>
						<path id="path1121" inkscape:connector-curvature="0" sodipodi:nodetypes="ccccccccc" class="st1" d="M197.1,114.6
							C302,114.6,415,250.8,520,250.8s201.8-136.2,306.7-136.2V77.1c-104.9,0-205.8,132.8-310.7,132.8S302.1,77.1,197.1,77.1
							C197.1,77.1,197.1,114.6,197.1,114.6z"/>
						<path id="path1122" inkscape:connector-curvature="0" sodipodi:nodetypes="ccccccccc" class="st0" d="M208.1,737.9
							c0-89.1,160.4-185,160.4-274.2c0-89.1-160.4-171.4-160.4-260.5h-44c0,89.1,156.4,174.8,156.4,263.9S164,648.7,164,737.9H208.1
							L208.1,737.9z"/>
						<path id="path1123" inkscape:connector-curvature="0" sodipodi:nodetypes="ccccccccc" class="st2" d="M197.1,52.3
							C302,52.3,415,188.5,519.9,188.5S721.7,52.3,826.6,52.3V14.8c-104.9,0-205.8,132.8-310.7,132.8S302,14.8,197,14.8
							C197.1,14.8,197.1,52.3,197.1,52.3z"/>
						<path id="path1124" inkscape:connector-curvature="0" sodipodi:nodetypes="ccccccccc" class="st0" d="M197.1,240.6
							C302,240.6,415,376.8,520,376.8c104.9,0,201.8-136.2,306.7-136.2v-37.5c-104.9,0-205.8,132.8-310.7,132.8
							S302.1,203.1,197.1,203.1C197.1,203.1,197.1,240.6,197.1,240.6z"/>
						<path id="path1125" inkscape:connector-curvature="0" sodipodi:nodetypes="ccccccccc" class="st1" d="M197.1,178.3
							C302,178.3,415,314.5,520,314.5c104.9,0,201.8-136.2,306.7-136.2v-37.5c-104.9,0-205.8,132.8-310.7,132.8
							S302.1,140.8,197.1,140.8C197.1,140.8,197.1,178.3,197.1,178.3z"/>
						<path id="path1126" inkscape:connector-curvature="0" sodipodi:nodetypes="ccccccccc" class="st0" d="M818.9,203.3
							c2.1,89.1-156,187.8-153.9,276.9c2.1,89.1,164.5,168.6,166.5,257.7c7.3-0.1,14.7-0.3,22-0.4c7.3-0.1,14.7-0.3,22-0.4
							C873.5,648,715.1,565,713,475.9s152-184.3,149.9-273.4c-7.3,0.1-14.7,0.3-22,0.4C833.7,203.1,826.4,203.2,818.9,203.3
							L818.9,203.3z"/>
						<path id="path1127" inkscape:connector-curvature="0" sodipodi:nodetypes="ccccccccc" class="st1" d="M197.1,114.6
							C302,114.6,415,250.8,520,250.8c104.9,0,201.8-136.2,306.7-136.2V77.1c-104.9,0-205.8,132.8-310.7,132.8
							S302.1,77.1,197.1,77.1C197.1,77.1,197.1,114.6,197.1,114.6z"/>
						<path id="path1128" inkscape:connector-curvature="0" sodipodi:nodetypes="ccccccccc" class="st0" d="M208.1,737.9
							c0-89.1,160.4-185,160.4-274.2c0-89.1-160.4-171.4-160.4-260.5h-44c0,89.1,156.4,174.8,156.4,263.9S164,648.7,164,737.9H208.1
							L208.1,737.9z"/>
						<path id="path1129" inkscape:connector-curvature="0" sodipodi:nodetypes="ccccccccc" class="st2" d="M197.1,52.3
							C302,52.3,415,188.5,520,188.5c104.9,0,201.8-136.2,306.7-136.2V14.8c-104.9,0-205.8,132.8-310.7,132.8S302.1,14.8,197.1,14.8
							C197.1,14.8,197.1,52.3,197.1,52.3z"/>
						<path id="path1130" inkscape:connector-curvature="0" sodipodi:nodetypes="ccccccccc" class="st0" d="M197.1,240.6
							C302,240.6,415,376.8,520,376.8c104.9,0,201.8-136.2,306.7-136.2v-37.5c-104.9,0-205.8,132.8-310.7,132.8
							S302.1,203.1,197.1,203.1C197.1,203.1,197.1,240.6,197.1,240.6z"/>
						<path id="path1131" inkscape:connector-curvature="0" sodipodi:nodetypes="ccccccccc" class="st1" d="M197.1,178.3
							C302,178.3,415,314.5,520,314.5c104.9,0,201.8-136.2,306.7-136.2v-37.5c-104.9,0-205.8,132.8-310.7,132.8
							S302.1,140.8,197.1,140.8C197.1,140.8,197.1,178.3,197.1,178.3z"/>
					</g>
				</g>
			</g>
		</g>
		<g id="g1465" transform="translate(343.52,-22.025)">
			<g id="g1466" transform="translate(0 .0046997)">
				<g id="g1467" transform="matrix(-.18738 0 0 -.10183 259.51 132.54)">
					<g id="g1468" transform="translate(-6.7574,149.81)">
						<path id="path1469" inkscape:connector-curvature="0" sodipodi:nodetypes="ccccccccc" class="st0" d="M538.2,203.3
							c2.1,89.1-156,187.8-153.9,276.9c2.1,89.1,164.5,168.6,166.5,257.7c7.3-0.1,14.7-0.3,22-0.4c7.3-0.1,14.7-0.3,22-0.4
							C592.7,648,434.3,565,432.2,475.9c-2.1-89.1,152-184.3,149.9-273.4c-7.3,0.1-14.7,0.3-22,0.4
							C552.9,203.1,545.6,203.2,538.2,203.3L538.2,203.3z"/>
						<path id="path1470" inkscape:connector-curvature="0" sodipodi:nodetypes="ccccccccc" class="st1" d="M-83.7,114.6
							c104.9,0,217.8,136.2,322.9,136.2S441,114.6,545.9,114.6V77.1c-104.9,0-205.8,132.8-310.7,132.8S21.4,77.1-83.7,77.1
							C-83.7,77.1-83.7,114.6-83.7,114.6z"/>
						<path id="path1471" inkscape:connector-curvature="0" sodipodi:nodetypes="ccccccccc" class="st0" d="M-72.7,737.9
							c0-89.1,160.4-185,160.4-274.2c0-89.1-160.4-171.4-160.4-260.5h-44c0,89.1,156.4,174.8,156.4,263.9s-156.4,181.6-156.4,270.8
							H-72.7L-72.7,737.9z"/>
						<path id="path1472" inkscape:connector-curvature="0" sodipodi:nodetypes="ccccccccc" class="st2" d="M-83.7,52.3
							c104.9,0,217.8,136.2,322.7,136.2S440.9,52.3,545.8,52.3V14.8c-104.9,0-205.8,132.8-310.7,132.8S21.2,14.8-83.8,14.8
							C-83.7,14.8-83.7,52.3-83.7,52.3z"/>
						<path id="path1473" inkscape:connector-curvature="0" sodipodi:nodetypes="ccccccccc" class="st0" d="M-83.7,240.6
							c104.9,0,217.8,136.2,322.9,136.2c104.9,0,201.8-136.2,306.7-136.2v-37.5c-104.9,0-205.8,132.8-310.7,132.8
							S21.4,203.1-83.7,203.1C-83.7,203.1-83.7,240.6-83.7,240.6z"/>
						<path id="path1474" inkscape:connector-curvature="0" sodipodi:nodetypes="ccccccccc" class="st1" d="M-83.7,178.3
							c104.9,0,218,136.2,322.9,136.2S441,178.3,545.9,178.3v-37.5c-104.9,0-205.8,132.8-310.7,132.8S21.4,140.8-83.7,140.8
							C-83.7,140.8-83.7,178.3-83.7,178.3z"/>
						<path id="path1475" inkscape:connector-curvature="0" sodipodi:nodetypes="ccccccccc" class="st0" d="M538.2,203.3
							c2.1,89.1-156,187.8-153.9,276.9c2.1,89.1,164.5,168.6,166.5,257.7c7.3-0.1,14.7-0.3,22-0.4c7.3-0.1,14.7-0.3,22-0.4
							C592.7,648,434.3,565,432.2,475.9c-2.1-89.1,152-184.3,149.9-273.4c-7.3,0.1-14.7,0.3-22,0.4
							C552.9,203.1,545.6,203.2,538.2,203.3L538.2,203.3z"/>
						<path id="path1476" inkscape:connector-curvature="0" sodipodi:nodetypes="ccccccccc" class="st1" d="M-83.7,114.6
							c104.9,0,217.8,136.2,322.9,136.2c104.9,0,201.8-136.2,306.7-136.2V77.1c-104.9,0-205.8,132.8-310.7,132.8
							S21.4,77.1-83.7,77.1C-83.7,77.1-83.7,114.6-83.7,114.6z"/>
						<path id="path1477" inkscape:connector-curvature="0" sodipodi:nodetypes="ccccccccc" class="st0" d="M-72.7,737.9
							c0-89.1,160.4-185,160.4-274.2c0-89.1-160.4-171.4-160.4-260.5h-44c0,89.1,156.4,174.8,156.4,263.9s-156.4,181.6-156.4,270.8
							H-72.7L-72.7,737.9z"/>
						<path id="path1478" inkscape:connector-curvature="0" sodipodi:nodetypes="ccccccccc" class="st2" d="M-83.7,52.3
							c104.9,0,217.8,136.2,322.9,136.2c104.9,0,201.8-136.2,306.7-136.2V14.8c-104.9,0-205.8,132.8-310.7,132.8
							S21.4,14.8-83.7,14.8C-83.7,14.8-83.7,52.3-83.7,52.3z"/>
						<path id="path1479" inkscape:connector-curvature="0" sodipodi:nodetypes="ccccccccc" class="st0" d="M-83.7,240.6
							c104.9,0,217.8,136.2,322.9,136.2c104.9,0,201.8-136.2,306.7-136.2v-37.5c-104.9,0-205.8,132.8-310.7,132.8
							S21.4,203.1-83.7,203.1C-83.7,203.1-83.7,240.6-83.7,240.6z"/>
						<path id="path1480" inkscape:connector-curvature="0" sodipodi:nodetypes="ccccccccc" class="st1" d="M-83.7,178.3
							c104.9,0,217.8,136.2,322.9,136.2c104.9,0,201.8-136.2,306.7-136.2v-37.5c-104.9,0-205.8,132.8-310.7,132.8
							S21.4,140.8-83.7,140.8C-83.7,140.8-83.7,178.3-83.7,178.3z"/>
					</g>
					<g id="g1481" transform="matrix(-1 0 0 -.99858 741.1 1090.5)">
						<path id="path1482" inkscape:connector-curvature="0" sodipodi:nodetypes="ccccccccc" class="st0" d="M819.3,203.3
							c2.1,89.1-156,187.7-153.9,276.8s164.5,168.6,166.5,257.7c7.3-0.1,14.7-0.3,22-0.4c7.3-0.1,14.7-0.3,22-0.4
							c-2.1-89.1-160.5-172.1-162.6-261.2s152-184.3,149.9-273.4c-7.3,0.1-14.7,0.3-22,0.4C834.1,203.1,826.8,203.2,819.3,203.3
							L819.3,203.3z"/>
						<path id="path1483" inkscape:connector-curvature="0" sodipodi:nodetypes="ccccccccc" class="st1" d="M197.5,114.6
							c104.9,0,217.8,136.2,322.9,136.2s201.8-136.2,306.7-136.2V77.1c-104.9,0-205.8,132.8-310.7,132.8S302.5,77.1,197.5,77.1
							C197.5,77.1,197.5,114.6,197.5,114.6z"/>
						<path id="path1484" inkscape:connector-curvature="0" sodipodi:nodetypes="ccccccccc" class="st0" d="M208.5,737.9
							c0-89.1,160.4-185,160.4-274.2c0-89.1-160.4-171.4-160.4-260.5h-44c0,89.1,156.4,174.8,156.4,263.9S164.4,648.7,164.4,737.9
							H208.5L208.5,737.9z"/>
						<path id="path1485" inkscape:connector-curvature="0" sodipodi:nodetypes="ccccccccc" class="st2" d="M197.5,52.3
							c104.9,0,217.8,136.2,322.7,136.2S722.1,52.3,827,52.3V14.8c-104.9,0-205.8,132.8-310.7,132.8S302.4,14.8,197.4,14.8
							C197.5,14.8,197.5,52.3,197.5,52.3z"/>
						<path id="path1486" inkscape:connector-curvature="0" sodipodi:nodetypes="ccccccccc" class="st0" d="M197.5,240.6
							c104.9,0,217.8,136.2,322.9,136.2c104.9,0,201.8-136.2,306.7-136.2v-37.5c-104.9,0-205.8,132.8-310.7,132.8
							S302.5,203.1,197.5,203.1C197.5,203.1,197.5,240.6,197.5,240.6z"/>
						<path id="path1487" inkscape:connector-curvature="0" sodipodi:nodetypes="ccccccccc" class="st1" d="M197.5,178.3
							c104.9,0,218,136.2,322.9,136.2s201.8-136.2,306.7-136.2v-37.5c-104.9,0-205.8,132.8-310.7,132.8S302.5,140.8,197.5,140.8
							C197.5,140.8,197.5,178.3,197.5,178.3z"/>
						<path id="path1488" inkscape:connector-curvature="0" sodipodi:nodetypes="ccccccccc" class="st0" d="M819.3,203.3
							c2.1,89.1-156,187.7-153.9,276.8s164.5,168.6,166.5,257.7c7.3-0.1,14.7-0.3,22-0.4c7.3-0.1,14.7-0.3,22-0.4
							c-2.1-89.1-160.5-172.1-162.6-261.2s152-184.3,149.9-273.4c-7.3,0.1-14.7,0.3-22,0.4C834.1,203.1,826.8,203.2,819.3,203.3
							L819.3,203.3z"/>
						<path id="path1489" inkscape:connector-curvature="0" sodipodi:nodetypes="ccccccccc" class="st1" d="M197.5,114.6
							c104.9,0,217.8,136.2,322.9,136.2c104.9,0,201.8-136.2,306.7-136.2V77.1C722.2,77.1,621.3,210,516.4,210
							S302.5,77.2,197.5,77.2C197.5,77.1,197.5,114.6,197.5,114.6z"/>
						<path id="path1490" inkscape:connector-curvature="0" sodipodi:nodetypes="ccccccccc" class="st0" d="M208.5,737.9
							c0-89.1,160.4-185,160.4-274.2c0-89.1-160.4-171.4-160.4-260.5h-44c0,89.1,156.4,174.8,156.4,263.9S164.4,648.7,164.4,737.9
							H208.5L208.5,737.9z"/>
						<path id="path1491" inkscape:connector-curvature="0" sodipodi:nodetypes="ccccccccc" class="st2" d="M197.5,52.3
							c104.9,0,217.8,136.2,322.9,136.2c104.9,0,201.8-136.2,306.7-136.2V14.8c-104.9,0-205.8,132.8-310.7,132.8
							S302.5,14.8,197.5,14.8C197.5,14.8,197.5,52.3,197.5,52.3z"/>
						<path id="path1492" inkscape:connector-curvature="0" sodipodi:nodetypes="ccccccccc" class="st0" d="M197.5,240.6
							c104.9,0,217.8,136.2,322.9,136.2c104.9,0,201.8-136.2,306.7-136.2v-37.5c-104.9,0-205.8,132.8-310.7,132.8
							S302.5,203.1,197.5,203.1C197.5,203.1,197.5,240.6,197.5,240.6z"/>
						<path id="path1493" inkscape:connector-curvature="0" sodipodi:nodetypes="ccccccccc" class="st1" d="M197.5,178.3
							c104.9,0,217.8,136.2,322.9,136.2c104.9,0,201.8-136.2,306.7-136.2v-37.5c-104.9,0-205.8,132.8-310.7,132.8
							S302.5,140.8,197.5,140.8C197.5,140.8,197.5,178.3,197.5,178.3z"/>
					</g>
				</g>
				<g id="g1494" transform="matrix(.18738 0 0 -.10203 22.475 132.69)">
					<g id="g1495" transform="translate(-6.7574,149.81)">
						<path id="path1496" inkscape:connector-curvature="0" sodipodi:nodetypes="ccccccccc" class="st0" d="M725.2,203.3
							c2.1,89.1-156,187.8-153.9,276.9c2.1,89.1,164.5,168.6,166.5,257.7c7.3-0.1,14.7-0.3,22-0.4c7.3-0.1,14.7-0.3,22-0.4
							C779.7,648,621.3,565,619.2,475.9c-2.1-89.1,152-184.3,149.9-273.4c-7.3,0.1-14.7,0.3-22,0.4
							C739.9,203.1,732.6,203.2,725.2,203.3L725.2,203.3z"/>
						<path id="path1497" inkscape:connector-curvature="0" sodipodi:nodetypes="ccccccccc" class="st1" d="M103.3,114.6
							c104.9,0,217.8,136.2,322.9,136.2S628,114.6,732.9,114.6V77.1c-104.9,0-205.8,132.8-310.7,132.8S208.4,77.1,103.3,77.1
							C103.3,77.1,103.3,114.6,103.3,114.6z"/>
						<path id="path1498" inkscape:connector-curvature="0" sodipodi:nodetypes="ccccccccc" class="st0" d="M114.3,737.9
							c0-89.1,160.4-185,160.4-274.2c0-89.1-160.4-171.4-160.4-260.5h-44c0,89.1,156.4,174.8,156.4,263.9S70.2,648.7,70.2,737.9
							H114.3L114.3,737.9z"/>
						<path id="path1499" inkscape:connector-curvature="0" sodipodi:nodetypes="ccccccccc" class="st2" d="M103.3,52.3
							c104.9,0,217.8,136.2,322.7,136.2S627.9,52.3,732.8,52.3V14.8c-104.9,0-205.8,132.8-310.7,132.8S208.2,14.8,103.2,14.8
							C103.3,14.8,103.3,52.3,103.3,52.3z"/>
						<path id="path1500" inkscape:connector-curvature="0" sodipodi:nodetypes="ccccccccc" class="st0" d="M103.3,240.6
							c104.9,0,217.8,136.2,322.9,136.2c104.9,0,201.8-136.2,306.7-136.2v-37.5c-104.9,0-205.8,132.8-310.7,132.8
							S208.4,203.1,103.3,203.1C103.3,203.1,103.3,240.6,103.3,240.6z"/>
						<path id="path1501" inkscape:connector-curvature="0" sodipodi:nodetypes="ccccccccc" class="st1" d="M103.3,178.3
							c104.9,0,218,136.2,322.9,136.2S628,178.3,732.9,178.3v-37.5c-104.9,0-205.8,132.8-310.7,132.8S208.4,140.8,103.3,140.8
							C103.3,140.8,103.3,178.3,103.3,178.3z"/>
						<path id="path1502" inkscape:connector-curvature="0" sodipodi:nodetypes="ccccccccc" class="st0" d="M725.2,203.3
							c2.1,89.1-156,187.8-153.9,276.9c2.1,89.1,164.5,168.6,166.5,257.7c7.3-0.1,14.7-0.3,22-0.4c7.3-0.1,14.7-0.3,22-0.4
							C779.7,648,621.3,565,619.2,475.9c-2.1-89.1,152-184.3,149.9-273.4c-7.3,0.1-14.7,0.3-22,0.4
							C739.9,203.1,732.6,203.2,725.2,203.3L725.2,203.3z"/>
						<path id="path1503" inkscape:connector-curvature="0" sodipodi:nodetypes="ccccccccc" class="st1" d="M103.3,114.6
							c104.9,0,217.8,136.2,322.9,136.2c104.9,0,201.8-136.2,306.7-136.2V77.1C628,77.1,527.1,210,422.2,210S208.4,77.2,103.3,77.2
							C103.3,77.1,103.3,114.6,103.3,114.6z"/>
						<path id="path1504" inkscape:connector-curvature="0" sodipodi:nodetypes="ccccccccc" class="st0" d="M114.3,737.9
							c0-89.1,160.4-185,160.4-274.2c0-89.1-160.4-171.4-160.4-260.5h-44c0,89.1,156.4,174.8,156.4,263.9S70.2,648.7,70.2,737.9
							H114.3L114.3,737.9z"/>
						<path id="path1505" inkscape:connector-curvature="0" sodipodi:nodetypes="ccccccccc" class="st2" d="M103.3,52.3
							c104.9,0,217.8,136.2,322.9,136.2c104.9,0,201.8-136.2,306.7-136.2V14.8c-104.9,0-205.8,132.8-310.7,132.8
							S208.4,14.8,103.3,14.8C103.3,14.8,103.3,52.3,103.3,52.3z"/>
						<path id="path1506" inkscape:connector-curvature="0" sodipodi:nodetypes="ccccccccc" class="st0" d="M103.3,240.6
							c104.9,0,217.8,136.2,322.9,136.2c104.9,0,201.8-136.2,306.7-136.2v-37.5c-104.9,0-205.8,132.8-310.7,132.8
							S208.4,203.1,103.3,203.1C103.3,203.1,103.3,240.6,103.3,240.6z"/>
						<path id="path1507" inkscape:connector-curvature="0" sodipodi:nodetypes="ccccccccc" class="st1" d="M103.3,178.3
							c104.9,0,217.8,136.2,322.9,136.2c104.9,0,201.8-136.2,306.7-136.2v-37.5c-104.9,0-205.8,132.8-310.7,132.8
							S208.4,140.8,103.3,140.8C103.3,140.8,103.3,178.3,103.3,178.3z"/>
					</g>
					<g id="g1508" transform="matrix(-1 0 0 -.99858 741.1 1090.5)">
						<path id="path1509" inkscape:connector-curvature="0" sodipodi:nodetypes="ccccccccc" class="st0" d="M632.3,203.3
							c2.1,89.1-156,187.8-153.9,276.9c2.1,89.1,164.5,168.6,166.5,257.7c7.3-0.1,14.7-0.3,22-0.4c7.3-0.1,14.7-0.3,22-0.4
							C686.9,648,528.5,565,526.4,475.9c-2.1-89.1,152-184.3,149.9-273.4c-7.3,0.1-14.7,0.3-22,0.4
							C647.1,203.1,639.8,203.2,632.3,203.3L632.3,203.3z"/>
						<path id="path1510" inkscape:connector-curvature="0" sodipodi:nodetypes="ccccccccc" class="st1" d="M10.5,114.6
							c104.9,0,217.8,136.2,322.9,136.2s201.8-136.2,306.7-136.2V77.1c-104.9,0-205.8,132.8-310.7,132.8S115.5,77.1,10.5,77.1
							C10.5,77.1,10.5,114.6,10.5,114.6z"/>
						<path id="path1511" inkscape:connector-curvature="0" sodipodi:nodetypes="ccccccccc" class="st0" d="M21.5,737.9
							c0-89.1,160.4-185,160.4-274.2c0-89.1-160.4-171.4-160.4-260.5h-44c0,89.1,156.4,174.8,156.4,263.9S-22.6,648.7-22.6,737.9
							H21.5L21.5,737.9z"/>
						<path id="path1512" inkscape:connector-curvature="0" sodipodi:nodetypes="ccccccccc" class="st2" d="M10.5,52.3
							c104.9,0,217.8,136.2,322.9,136.2c104.9,0,201.8-136.2,306.7-136.2V14.8c-104.9,0-205.8,132.8-310.7,132.8
							S115.5,14.8,10.5,14.8C10.5,14.8,10.5,52.3,10.5,52.3z"/>
						<path id="path1513" inkscape:connector-curvature="0" sodipodi:nodetypes="ccccccccc" class="st0" d="M10.5,240.6
							c104.9,0,217.8,136.2,322.9,136.2c104.9,0,201.8-136.2,306.7-136.2v-37.5c-104.9,0-205.8,132.8-310.7,132.8
							S115.5,203.1,10.5,203.1C10.5,203.1,10.5,240.6,10.5,240.6z"/>
						<path id="path1514" inkscape:connector-curvature="0" sodipodi:nodetypes="ccccccccc" class="st1" d="M10.5,178.3
							c104.9,0,218,136.2,322.9,136.2s201.8-136.2,306.7-136.2v-37.5c-104.9,0-205.8,132.8-310.7,132.8S115.5,140.8,10.5,140.8
							C10.5,140.8,10.5,178.3,10.5,178.3z"/>
						<path id="path1515" inkscape:connector-curvature="0" sodipodi:nodetypes="ccccccccc" class="st0" d="M632.3,203.3
							c2.1,89.1-156,187.8-153.9,276.9c2.1,89.1,164.5,168.6,166.5,257.7c7.3-0.1,14.7-0.3,22-0.4c7.3-0.1,14.7-0.3,22-0.4
							C686.9,648,528.5,565,526.4,475.9c-2.1-89.1,152-184.3,149.9-273.4c-7.3,0.1-14.7,0.3-22,0.4
							C647.1,203.1,639.8,203.2,632.3,203.3L632.3,203.3z"/>
						<path id="path1516" inkscape:connector-curvature="0" sodipodi:nodetypes="ccccccccc" class="st1" d="M10.5,114.6
							c104.9,0,217.8,136.2,322.9,136.2c104.9,0,201.8-136.2,306.7-136.2V77.1c-104.9,0-205.8,132.8-310.7,132.8
							S115.5,77.1,10.5,77.1C10.5,77.1,10.5,114.6,10.5,114.6z"/>
						<path id="path1517" inkscape:connector-curvature="0" sodipodi:nodetypes="ccccccccc" class="st0" d="M21.5,737.9
							c0-89.1,160.4-185,160.4-274.2c0-89.1-160.4-171.4-160.4-260.5h-44c0,89.1,156.4,174.8,156.4,263.9S-22.6,648.7-22.6,737.9
							H21.5L21.5,737.9z"/>
						<path id="path1518" inkscape:connector-curvature="0" sodipodi:nodetypes="ccccccccc" class="st2" d="M10.5,52.3
							c104.9,0,217.8,136.2,322.9,136.2c104.9,0,201.8-136.2,306.7-136.2V14.8c-104.9,0-205.8,132.8-310.7,132.8
							S115.5,14.8,10.5,14.8C10.5,14.8,10.5,52.3,10.5,52.3z"/>
						<path id="path1519" inkscape:connector-curvature="0" sodipodi:nodetypes="ccccccccc" class="st0" d="M10.5,240.6
							c104.9,0,217.8,136.2,322.9,136.2c104.9,0,201.8-136.2,306.7-136.2v-37.5c-104.9,0-205.8,132.8-310.7,132.8
							S115.5,203.1,10.5,203.1C10.5,203.1,10.5,240.6,10.5,240.6z"/>
						<path id="path1520" inkscape:connector-curvature="0" sodipodi:nodetypes="ccccccccc" class="st1" d="M10.5,178.3
							c104.9,0,217.8,136.2,322.9,136.2c104.9,0,201.8-136.2,306.7-136.2v-37.5c-104.9,0-205.8,132.8-310.7,132.8
							S115.5,140.8,10.5,140.8C10.5,140.8,10.5,178.3,10.5,178.3z"/>
					</g>
				</g>
			</g>
			<g id="g1521" transform="matrix(.99999 0 0 1 198.63 .0049591)">
				<g id="g1522" transform="matrix(-.18738 0 0 -.10183 259.51 132.54)">
					<g id="g1523" transform="translate(-6.7574,149.81)">
						<path id="path1524" inkscape:connector-curvature="0" sodipodi:nodetypes="ccccccccc" class="st0" d="M350,203.3
							c2.1,89.1-156,187.7-153.9,276.8s164.5,168.6,166.5,257.7c7.3-0.1,14.7-0.3,22-0.4c7.3-0.1,14.7-0.3,22-0.4
							c-2.1-89.1-160.5-172.1-162.6-261.2c-2.1-89.1,152-184.3,149.9-273.4c-7.3,0.1-14.7,0.3-22,0.4
							C364.7,203.1,357.4,203.2,350,203.3L350,203.3z"/>
						<path id="path1525_1_" inkscape:connector-curvature="0" sodipodi:nodetypes="ccccccccc" class="st1" d="M51,250.8
							c105,0,201.8-136.2,306.7-136.2V77.1C252.9,77.1,152,209.9,47,209.9"/>
						<path id="path1526_1_" inkscape:connector-curvature="0" sodipodi:nodetypes="ccccccccc" class="st0" d="M-100.5,463.7"/>
						<path id="path1527_1_" inkscape:connector-curvature="0" sodipodi:nodetypes="ccccccccc" class="st2" d="M51,188.5
							c104.9,0,201.8-136.2,306.7-136.2V14.8C252.9,14.8,152,147.6,47,147.6"/>
						<path id="path1528_1_" inkscape:connector-curvature="0" sodipodi:nodetypes="ccccccccc" class="st0" d="M51,376.8
							c104.9,0,201.8-136.2,306.7-136.2v-37.5C252.9,203.1,152,335.9,47,335.9"/>
						<path id="path1529_1_" inkscape:connector-curvature="0" sodipodi:nodetypes="ccccccccc" class="st1" d="M51,314.5
							c104.9,0,201.8-136.2,306.7-136.2v-37.5C252.9,140.8,152,273.6,47,273.6"/>
						<path id="path1530" inkscape:connector-curvature="0" sodipodi:nodetypes="ccccccccc" class="st0" d="M350,203.3
							c2.1,89.1-156,187.7-153.9,276.8s164.5,168.6,166.5,257.7c7.3-0.1,14.7-0.3,22-0.4c7.3-0.1,14.7-0.3,22-0.4
							c-2.1-89.1-160.5-172.1-162.6-261.2c-2.1-89.1,152-184.3,149.9-273.4c-7.3,0.1-14.7,0.3-22,0.4
							C364.7,203.1,357.4,203.2,350,203.3L350,203.3z"/>
						<path id="path1531_1_" inkscape:connector-curvature="0" sodipodi:nodetypes="ccccccccc" class="st1" d="M51,250.8
							c104.9,0,201.8-136.2,306.7-136.2V77.1C252.9,77.1,152,209.9,47,209.9"/>
						<path id="path1532_1_" inkscape:connector-curvature="0" sodipodi:nodetypes="ccccccccc" class="st0" d="M-100.5,463.7"/>
						<path id="path1533_1_" inkscape:connector-curvature="0" sodipodi:nodetypes="ccccccccc" class="st2" d="M51,188.5
							c104.9,0,201.8-136.2,306.7-136.2V14.8C252.9,14.8,152,147.6,47,147.6"/>
						<path id="path1534_1_" inkscape:connector-curvature="0" sodipodi:nodetypes="ccccccccc" class="st0" d="M51,376.8
							c104.9,0,201.8-136.2,306.7-136.2v-37.5C252.9,203.1,152,335.9,47,335.9"/>
						<path id="path1535_1_" inkscape:connector-curvature="0" sodipodi:nodetypes="ccccccccc" class="st1" d="M51,314.5
							c104.9,0,201.8-136.2,306.7-136.2v-37.5C252.9,140.8,152,273.6,47,273.6"/>
					</g>
					<g id="g1536" transform="matrix(-1 0 0 -.99858 741.1 1090.5)">
						<path id="path1537_1_" inkscape:connector-curvature="0" sodipodi:nodetypes="ccccccccc" class="st0" d="M853.6,480.1"/>
						<path id="path1538_1_" inkscape:connector-curvature="0" sodipodi:nodetypes="ccccccccc" class="st1" d="M704.5,209.9
							c-104.9,0-213.8-132.8-318.9-132.8c0,0,0,37.5,0,37.5c104.9,0,217.8,136.2,322.9,136.2"/>
						<path id="path1539" inkscape:connector-curvature="0" sodipodi:nodetypes="ccccccccc" class="st0" d="M396.6,737.9
							c0-89.1,160.4-185,160.4-274.2c0-89.1-160.4-171.4-160.4-260.5h-44c0,89.1,156.4,174.8,156.4,263.9S352.6,648.7,352.6,737.9
							H396.6L396.6,737.9z"/>
						<path id="path1540_1_" inkscape:connector-curvature="0" sodipodi:nodetypes="ccccccccc" class="st2" d="M704.4,147.6
							c-104.9,0-213.8-132.8-318.9-132.8c0.1,0,0.1,37.5,0.1,37.5c104.9,0,217.8,136.2,322.7,136.2"/>
						<path id="path1541_1_" inkscape:connector-curvature="0" sodipodi:nodetypes="ccccccccc" class="st0" d="M704.5,335.9
							c-104.9,0-213.8-132.8-318.9-132.8c0,0,0,37.5,0,37.5c104.9,0,217.8,136.2,322.9,136.2"/>
						<path id="path1542_1_" inkscape:connector-curvature="0" sodipodi:nodetypes="ccccccccc" class="st1" d="M704.5,273.6
							c-104.9,0-213.8-132.8-318.9-132.8c0,0,0,37.5,0,37.5c104.9,0,218,136.2,322.9,136.2"/>
						<path id="path1543_1_" inkscape:connector-curvature="0" sodipodi:nodetypes="ccccccccc" class="st0" d="M853.6,480.1"/>
						<path id="path1544_1_" inkscape:connector-curvature="0" sodipodi:nodetypes="ccccccccc" class="st1" d="M704.4,210
							C599.5,210,490.6,77.2,385.5,77.2c0.1-0.1,0.1,37.4,0.1,37.4c104.9,0,217.8,136.2,322.9,136.2"/>
						<path id="path1545" inkscape:connector-curvature="0" sodipodi:nodetypes="ccccccccc" class="st0" d="M396.6,737.9
							c0-89.1,160.4-185,160.4-274.2c0-89.1-160.4-171.4-160.4-260.5h-44c0,89.1,156.4,174.8,156.4,263.9S352.6,648.7,352.6,737.9
							H396.6L396.6,737.9z"/>
						<path id="path1546_1_" inkscape:connector-curvature="0" sodipodi:nodetypes="ccccccccc" class="st2" d="M704.5,147.6
							c-104.9,0-213.8-132.8-318.9-132.8c0,0,0,37.5,0,37.5c104.9,0,217.8,136.2,322.9,136.2"/>
						<path id="path1547_1_" inkscape:connector-curvature="0" sodipodi:nodetypes="ccccccccc" class="st0" d="M704.5,335.9
							c-104.9,0-213.8-132.8-318.9-132.8c0,0,0,37.5,0,37.5c104.9,0,217.8,136.2,322.9,136.2"/>
						<path id="path1548_1_" inkscape:connector-curvature="0" sodipodi:nodetypes="ccccccccc" class="st1" d="M704.5,273.6
							c-104.9,0-213.8-132.8-318.9-132.8c0,0,0,37.5,0,37.5c104.9,0,217.8,136.2,322.9,136.2"/>
					</g>
				</g>
				<g id="g1549" transform="matrix(.18738 0 0 -.10203 22.475 132.69)">
					<g id="g1550" transform="translate(-6.7574,149.81)">
						<path id="path1551" inkscape:connector-curvature="0" sodipodi:nodetypes="ccccccccc" class="st0" d="M913.3,203.3
							c2.1,89.1-156,187.8-153.9,276.9c2.1,89.1,164.5,168.6,166.5,257.7c7.3-0.1,14.7-0.3,22-0.4c7.3-0.1,14.7-0.3,22-0.4
							C967.8,648,809.4,565,807.3,475.9c-2.1-89.1,152-184.3,149.9-273.4c-7.3,0.1-14.7,0.3-22,0.4
							C928,203.1,920.7,203.2,913.3,203.3L913.3,203.3z"/>
						<path id="path1552" inkscape:connector-curvature="0" sodipodi:nodetypes="ccccccccc" class="st1" d="M291.5,114.6
							c104.9,0,217.8,136.2,322.9,136.2s201.8-136.2,306.7-136.2V77.1c-104.9,0-205.8,132.8-310.7,132.8S396.5,77.1,291.5,77.1
							C291.5,77.1,291.5,114.6,291.5,114.6z"/>
						<path id="path1553" inkscape:connector-curvature="0" sodipodi:nodetypes="ccccccccc" class="st0" d="M302.4,737.9
							c0-89.1,160.4-185,160.4-274.2c0-89.1-160.4-171.4-160.4-260.5h-44c0,89.1,156.4,174.8,156.4,263.9S258.4,648.7,258.4,737.9
							H302.4L302.4,737.9z"/>
						<path id="path1554" inkscape:connector-curvature="0" sodipodi:nodetypes="ccccccccc" class="st2" d="M291.5,52.3
							c104.9,0,217.8,136.2,322.7,136.2S816,52.3,921,52.3V14.8c-104.9,0-205.8,132.8-310.7,132.8S396.4,14.8,291.4,14.8
							C291.5,14.8,291.5,52.3,291.5,52.3z"/>
						<path id="path1555" inkscape:connector-curvature="0" sodipodi:nodetypes="ccccccccc" class="st0" d="M291.5,240.6
							c104.9,0,217.8,136.2,322.9,136.2c104.9,0,201.8-136.2,306.7-136.2v-37.5c-104.9,0-205.8,132.8-310.7,132.8
							S396.5,203.1,291.5,203.1C291.5,203.1,291.5,240.6,291.5,240.6z"/>
						<path id="path1556" inkscape:connector-curvature="0" sodipodi:nodetypes="ccccccccc" class="st1" d="M291.5,178.3
							c104.9,0,218,136.2,322.9,136.2c104.9,0,201.8-136.2,306.7-136.2v-37.5c-104.9,0-205.8,132.8-310.7,132.8
							S396.5,140.8,291.5,140.8C291.5,140.8,291.5,178.3,291.5,178.3z"/>
						<path id="path1557" inkscape:connector-curvature="0" sodipodi:nodetypes="ccccccccc" class="st0" d="M913.3,203.3
							c2.1,89.1-156,187.8-153.9,276.9c2.1,89.1,164.5,168.6,166.5,257.7c7.3-0.1,14.7-0.3,22-0.4c7.3-0.1,14.7-0.3,22-0.4
							C967.8,648,809.4,565,807.3,475.9c-2.1-89.1,152-184.3,149.9-273.4c-7.3,0.1-14.7,0.3-22,0.4
							C928,203.1,920.7,203.2,913.3,203.3L913.3,203.3z"/>
						<path id="path1558" inkscape:connector-curvature="0" sodipodi:nodetypes="ccccccccc" class="st1" d="M291.5,114.6
							c104.9,0,217.8,136.2,322.9,136.2c104.9,0,201.8-136.2,306.7-136.2V77.1C816.2,77.1,715.2,210,610.3,210
							S396.5,77.2,291.5,77.2C291.5,77.1,291.5,114.6,291.5,114.6z"/>
						<path id="path1559" inkscape:connector-curvature="0" sodipodi:nodetypes="ccccccccc" class="st0" d="M302.4,737.9
							c0-89.1,160.4-185,160.4-274.2c0-89.1-160.4-171.4-160.4-260.5h-44c0,89.1,156.4,174.8,156.4,263.9S258.4,648.7,258.4,737.9
							H302.4L302.4,737.9z"/>
						<path id="path1560" inkscape:connector-curvature="0" sodipodi:nodetypes="ccccccccc" class="st2" d="M291.5,52.3
							c104.9,0,217.8,136.2,322.9,136.2c104.9,0,201.8-136.2,306.7-136.2V14.8c-104.9,0-205.8,132.8-310.7,132.8
							S396.5,14.8,291.5,14.8C291.5,14.8,291.5,52.3,291.5,52.3z"/>
						<path id="path1561" inkscape:connector-curvature="0" sodipodi:nodetypes="ccccccccc" class="st0" d="M291.5,240.6
							c104.9,0,217.8,136.2,322.9,136.2c104.9,0,201.8-136.2,306.7-136.2v-37.5c-104.9,0-205.8,132.8-310.7,132.8
							S396.5,203.1,291.5,203.1C291.5,203.1,291.5,240.6,291.5,240.6z"/>
						<path id="path1562" inkscape:connector-curvature="0" sodipodi:nodetypes="ccccccccc" class="st1" d="M291.5,178.3
							c104.9,0,217.8,136.2,322.9,136.2c104.9,0,201.8-136.2,306.7-136.2v-37.5c-104.9,0-205.8,132.8-310.7,132.8
							S396.5,140.8,291.5,140.8C291.5,140.8,291.5,178.3,291.5,178.3z"/>
					</g>
					<g id="g1563" transform="matrix(-1 0 0 -.99858 741.1 1090.5)">
						<path id="path1564" inkscape:connector-curvature="0" sodipodi:nodetypes="ccccccccc" class="st0" d="M444.2,203.3
							c2.1,89.1-156,187.8-153.9,276.9s164.5,168.6,166.5,257.7c7.3-0.1,14.7-0.3,22-0.4c7.3-0.1,14.7-0.3,22-0.4
							C498.7,648,340.3,565,338.2,475.9c-2.1-89.1,152-184.3,149.9-273.4c-7.3,0.1-14.7,0.3-22,0.4
							C458.9,203.1,451.6,203.2,444.2,203.3L444.2,203.3z"/>
						<path id="path1565" inkscape:connector-curvature="0" sodipodi:nodetypes="ccccccccc" class="st1" d="M-177.6,114.6
							c104.9,0,217.8,136.2,322.9,136.2S347.1,114.6,452,114.6V77.1c-104.9,0-205.8,132.8-310.7,132.8S-72.6,77.1-177.6,77.1
							C-177.6,77.1-177.6,114.6-177.6,114.6z"/>
						<path id="path1566" inkscape:connector-curvature="0" sodipodi:nodetypes="ccccccccc" class="st0" d="M-166.7,737.9
							c0-89.1,160.4-185,160.4-274.2c0-89.1-160.4-171.4-160.4-260.5h-44c0,89.1,156.4,174.8,156.4,263.9s-156.4,181.6-156.4,270.8
							H-166.7L-166.7,737.9z"/>
						<path id="path1567" inkscape:connector-curvature="0" sodipodi:nodetypes="ccccccccc" class="st2" d="M-177.6,52.3
							c104.9,0,217.8,136.2,322.7,136.2S346.9,52.3,451.8,52.3V14.8c-104.9,0-205.8,132.8-310.7,132.8S-72.7,14.8-177.8,14.8
							C-177.6,14.8-177.6,52.3-177.6,52.3z"/>
						<path id="path1568" inkscape:connector-curvature="0" sodipodi:nodetypes="ccccccccc" class="st0" d="M-177.6,240.6
							c104.9,0,217.8,136.2,322.9,136.2c104.9,0,201.8-136.2,306.7-136.2v-37.5c-104.9,0-205.8,132.8-310.7,132.8
							S-72.6,203.1-177.6,203.1C-177.6,203.1-177.6,240.6-177.6,240.6z"/>
						<path id="path1569" inkscape:connector-curvature="0" sodipodi:nodetypes="ccccccccc" class="st1" d="M-177.6,178.3
							c104.9,0,217.8,136.2,322.9,136.2c104.9,0,201.8-136.2,306.7-136.2v-37.5c-104.9,0-205.8,132.8-310.7,132.8
							S-72.6,140.8-177.6,140.8C-177.6,140.8-177.6,178.3-177.6,178.3z"/>
						<path id="path1570" inkscape:connector-curvature="0" sodipodi:nodetypes="ccccccccc" class="st0" d="M444.2,203.3
							c2.1,89.1-156,187.8-153.9,276.9s164.5,168.6,166.5,257.7c7.3-0.1,14.7-0.3,22-0.4c7.3-0.1,14.7-0.3,22-0.4
							C498.7,648,340.3,565,338.2,475.9c-2.1-89.1,152-184.3,149.9-273.4c-7.3,0.1-14.7,0.3-22,0.4
							C458.9,203.1,451.6,203.2,444.2,203.3L444.2,203.3z"/>
						<path id="path1571" inkscape:connector-curvature="0" sodipodi:nodetypes="ccccccccc" class="st1" d="M-177.6,114.6
							c104.9,0,217.8,136.2,322.9,136.2c104.9,0,201.8-136.2,306.7-136.2V77.1c-104.9,0-205.8,132.8-310.7,132.8
							S-72.6,77.1-177.6,77.1C-177.6,77.1-177.6,114.6-177.6,114.6z"/>
						<path id="path1572" inkscape:connector-curvature="0" sodipodi:nodetypes="ccccccccc" class="st0" d="M-166.7,737.9
							c0-89.1,160.4-185,160.4-274.2c0-89.1-160.4-171.4-160.4-260.5h-44c0,89.1,156.4,174.8,156.4,263.9s-156.4,181.6-156.4,270.8
							H-166.7L-166.7,737.9z"/>
						<path id="path1573" inkscape:connector-curvature="0" sodipodi:nodetypes="ccccccccc" class="st2" d="M-177.6,52.3
							c104.9,0,217.8,136.2,322.9,136.2c104.9,0,201.8-136.2,306.7-136.2V14.8c-104.9,0-205.8,132.8-310.7,132.8
							S-72.6,14.8-177.6,14.8C-177.6,14.8-177.6,52.3-177.6,52.3z"/>
						<path id="path1574" inkscape:connector-curvature="0" sodipodi:nodetypes="ccccccccc" class="st0" d="M-177.6,240.6
							c104.9,0,217.8,136.2,322.9,136.2c104.9,0,201.8-136.2,306.7-136.2v-37.5c-104.9,0-205.8,132.8-310.7,132.8
							S-72.6,203.1-177.6,203.1C-177.6,203.1-177.6,240.6-177.6,240.6z"/>
						<path id="path1575" inkscape:connector-curvature="0" sodipodi:nodetypes="ccccccccc" class="st1" d="M-177.6,178.3
							c104.9,0,217.8,136.2,322.9,136.2c104.9,0,201.8-136.2,306.7-136.2v-37.5c-104.9,0-205.8,132.8-310.7,132.8
							S-72.6,140.8-177.6,140.8C-177.6,140.8-177.6,178.3-177.6,178.3z"/>
					</g>
				</g>
			</g>
		</g>
	</g>
	<ellipse class="st3" cx="55.4" cy="46.5" rx="8.8" ry="8.1"/>
	<ellipse class="st3" cx="172.5" cy="46.4" rx="8.8" ry="8.1"/>
	<ellipse class="st3" cx="288.8" cy="46.6" rx="8.8" ry="8.1"/>
	<ellipse class="st3" cx="406" cy="46.4" rx="8.8" ry="8.1"/>
	<ellipse class="st3" cx="520.8" cy="46.4" rx="8.8" ry="8.1"/>
	<ellipse class="st3" cx="637.9" cy="46.3" rx="8.8" ry="8.1"/>
	<ellipse class="st3" cx="755.2" cy="46.3" rx="8.8" ry="8.1"/>
</g>
</svg>
