<svg id="Layer_1" data-name="Layer 1" xmlns="http://www.w3.org/2000/svg" viewBox="0 0 1000 1000"><defs><style>.cls-1{fill:#fff;}</style></defs><title>ingredient</title><path class="cls-1" d="M2,572.27c1.57-6.57,3-13.17,4.72-19.7A149.78,149.78,0,0,1,36,494.74c3.47-4.24,4.12-7.49,1.87-12.89C24,448.54,39.59,412.06,73.34,399.5c15.18-5.65,31-9.85,46.65-14,53.3-14.1,101-39.18,144.43-72.8,15.68-12.13,31.85-23.63,48.05-35.07,21.61-15.28,44.61-20.83,69.29-8.07C434.7,202,569.05,202,622,269.62c25-13.13,48.23-6.95,70.11,8.32C707,288.37,722,298.8,736.21,310.14a426.23,426.23,0,0,0,104.86,61.38c3.27,1.34,6.74,2.84,9.27,5.18,5,4.64,6.38,10.6,3,16.84-3.48,6.4-9.06,9.54-16.27,7.45a146.68,146.68,0,0,1-18.17-7c-38.62-17-74.06-39.11-107-65.55-14.15-11.36-29.47-21.38-44.89-31-16.93-10.58-36.44-4.85-45.73,12.35-9.1,16.85-3.15,37.74,14.74,45.37a333.3,333.3,0,0,0,49,16.06c59.73,15.15,112.26,43.85,160.14,82.14,14.93,11.94,31.11,22.44,47.27,32.74,16.6,10.58,36.09,4.62,45.41-12.89a32.7,32.7,0,0,0-15.14-45.39c-7.07-3.21-14.8-4.93-22-8-7.35-3.14-9.84-9.53-7.88-16.93s7.57-11,15.48-10.46c29,2.12,55,24.16,61.29,52.21,2.92,13.07,1.3,25.77-3.71,38.24-1.08,2.69-1.14,7.31.47,9.33,18.45,23.18,30.31,49.12,34.44,78.53.07.54.75,1,1.15,1.5v35.15c-1.74,7.19-3.28,14.43-5.26,21.55C982.36,680.68,950,716.25,899.5,734.05c-63.73,22.49-129.79,35.19-196.76,43.19C612.38,788,521.67,790.11,430.81,787c-95.16-3.27-189.4-13.55-281.53-38.92-14.48-4-20.32-10.29-18-19.61,2.53-10,10.69-12.76,25.67-8.65,68.61,18.85,138.63,29,209.49,34.3a1860.61,1860.61,0,0,0,248.77,1.55c92.8-5.55,184.37-18.59,272.86-48.56C971,679,1000,576.55,943,511c-2.06.92-4.36,1.85-6.57,3-19.54,9.83-39,9.93-57.57-1.86-17.27-11-34.73-21.94-50.59-34.78-48.33-39.12-101.9-67-162.72-80.85-12-2.73-23.52-7.37-35.13-11.51-12.9-4.59-23.26-12.6-31.63-23.56-1.61-2.1-6.45-3-9.44-2.41-2.69.48-6.59,3.36-7,5.73-4.92,26.14-8.54,52.55-13.94,78.58-8.33,40.12-4.75,79.38,4.45,118.87,4.62,19.82,8.4,40.32,8.73,60.57.72,43.93-36,78.88-79.94,78.74s-80.13-35.3-79.34-79.37a248.08,248.08,0,0,1,8.18-57.71c12.56-48.09,12.74-95.56.05-143.63-4.7-17.78-5.67-36.52-8.85-54.74-.45-2.58-3.43-5.86-5.92-6.65-3-1-8.6-.89-9.86.94-12.95,18.85-32.84,25.9-53.13,32.26-24.77,7.77-50.18,13.81-74.39,23-37.33,14.21-70.53,35.91-101.7,60.91C162.49,487.91,147,497.63,132.06,508c-22.81,15.9-46.28,17.56-70.93,2.45-18,20.71-28.28,44.61-29.51,71.65-2.11,46,15.77,82.74,53.17,110.06,4.57,3.33,9,8.88,10.19,14.14.81,3.67-3.15,11-6.66,12.38-4.91,1.9-12.68,1.77-17-1-32-20.41-52.92-49.45-63.46-85.88-2.33-8-4-16.28-5.92-24.43Zm470-84.48c-3.16,23.16-5.36,41.86-8.33,60.44-3.83,24-10.23,47.78-11.95,71.91-2.09,29.26,21.38,51.94,50,52.05,29,.12,51.88-22.68,50.78-52.5a206.42,206.42,0,0,0-6.75-45.15c-14.08-53-15.29-105.7-1.22-159a235.92,235.92,0,0,0,7.84-53.79c.71-27.64-23.29-49.53-51.07-49.26-27.2.26-50.06,22.34-49.78,49.68.14,13.53,2.58,27.11,4.89,40.52C461.46,432.4,467.17,462,471.94,487.79Zm-409.71-30a33.74,33.74,0,0,0,17.53,29.55c10.93,6.08,21.78,5.92,32.13-1.32,18.62-13,37.56-25.64,55.59-39.45,44.6-34.16,93.09-60.14,147.8-74.23,17.85-4.59,35.67-10.05,52.61-17.22,17.9-7.57,23.76-28.57,14.65-45.36-9.29-17.15-29-23.06-45.68-12.28-18.53,11.94-36.65,24.65-54.09,38.14-46.3,35.8-97.12,62.35-153.64,77.89-15.63,4.3-31.3,8.61-46.58,14C69.43,432.08,62.19,444,62.23,457.77ZM427.85,331.25c31.8-64.31,117.27-63.86,149.33,2,3.82-3.22,9.14-5.5,10.4-9.18,3.91-11.43,6.27-23.4,10.18-38.89-7.65-5.85-17-15.14-28.08-21.07-31.28-16.7-64.9-19.61-99.41-12.78-23,4.56-44.1,13.21-60.43,31.06-3.9,4.26-5,7.68-1.91,13.5,3.7,7,6.74,15.1,7.31,22.93C415.87,327.4,419,331.08,427.85,331.25Z"/><path class="cls-1" d="M708.17,503.54a15.41,15.41,0,0,1-14.91-15.92,15.21,15.21,0,0,1,15.89-14.83,15.56,15.56,0,0,1,14.57,15.32C723.73,496.43,716.4,503.7,708.17,503.54Z"/><path class="cls-1" d="M347.81,610.2a15.32,15.32,0,0,1,15.51,15.26,15.1,15.1,0,0,1-14.45,15.22,15.25,15.25,0,1,1-1.06-30.48Z"/><path class="cls-1" d="M755.15,687.09a15.36,15.36,0,0,1-15-15.77,15.16,15.16,0,0,1,15.72-15,15.42,15.42,0,0,1,14.68,15.16C770.6,679.91,763.44,687.17,755.15,687.09Z"/><path class="cls-1" d="M293.26,464.86a15.09,15.09,0,1,1-14.95-15.65A15.14,15.14,0,0,1,293.26,464.86Z"/><path class="cls-1" d="M131,588.53a15.22,15.22,0,1,1-15.74-14.73A14.88,14.88,0,0,1,131,588.53Z"/><path class="cls-1" d="M883.43,590.82a15.12,15.12,0,1,1-14.65-15.07A14.81,14.81,0,0,1,883.43,590.82Z"/></svg>