<svg id="Layer_1" data-name="Layer 1" xmlns="http://www.w3.org/2000/svg" viewBox="0 0 1000 1000"><defs><style>.cls-1{fill:#fff;}</style></defs><title>LEFT</title><path class="cls-1" d="M994.49,775.94c-34.67-54.86-86.43-81-142.56-100.59-61.82-21.57-126-30.91-190.95-36.88-80.55-7.41-161.3-4-242-5.69-73.6-1.5-146.87-7.27-219.22-21.46-45-8.83-89.48-20-130.18-42.33-23.13-12.66-43.8-28.14-56.34-52.29-.6-1.15-1.29-2.26-1.84-3.44-10.76-23-9.54-27.45,11.17-41.15C38.31,461.72,54,451.3,70.15,440.58,49.93,370.42,29.82,300.62,8.89,228c7.42,9.94,12.64,17.91,18.81,25.06,24.32,28.21,55.36,47,89,61.79,54.62,24,112.35,36.23,171.12,44.55,91.55,13,183.68,11.08,275.75,11.49,80.83.37,161.23,6.42,240.68,21.74,45.07,8.7,89.47,20.06,130.18,42.34,23.15,12.67,43.71,28.26,56.27,52.38.9,1.72,1.93,3.4,2.68,5.19,9.32,22.35,8.49,25.47-10.39,40.21-13.85,10.81-27.32,22.15-41.65,32.27-6.76,4.78-6.81,9.18-4.69,16.2,18.44,60.94,36.54,122,54.73,183C992.26,767.26,993,770.32,994.49,775.94Z"/></svg>