<?xml version="1.0" encoding="utf-8"?>
<!-- Generator: Adobe Illustrator 23.0.1, SVG Export Plug-In . SVG Version: 6.00 Build 0)  -->
<svg version="1.1" id="Layer_1" xmlns="http://www.w3.org/2000/svg" xmlns:xlink="http://www.w3.org/1999/xlink" x="0px" y="0px"
	 viewBox="0 0 1000 296.3" style="enable-background:new 0 0 1000 296.3;" xml:space="preserve">
<style type="text/css">
	.st0{enable-background:new    ;}
	.st1{fill:#FFFFFF;}
	.st2{fill-rule:evenodd;clip-rule:evenodd;fill:#FFFFFF;}
</style>
<title>Logo</title>
<g class="st0">
	<path class="st1" d="M7,179.2V96.6c-0.1-0.9-1-1.6-2.5-2c-1.2-0.4-2-0.9-2.4-1.6c-0.4-0.7-0.6-2.2-0.6-4.5c0-1.7,0.3-2.8,0.9-3.3
		C3,84.6,4.5,84.3,7,84.3h32.6c9.3,0,17,4.3,23.1,12.9C68.9,105.8,72,120,72,140c0,18.2-3,31.8-8.9,40.8c-5.9,9-13.7,13.5-23.4,13.5
		h-36c-1,0-1.7-0.2-2.1-0.7c-0.4-0.5-0.6-1.5-0.6-3.2c0-2,0.1-3.2,0.2-3.7s0.8-1.1,2-1.7C5.7,183.7,7,181.8,7,179.2z M33,92.3v95
		h3.6c2.6,0,4.4-1.1,5.6-3.2c1.2-2.1,1.8-5.9,1.8-11.4v-70.1c0-3.1-0.7-5.6-2.2-7.5c-1.5-1.9-3.5-2.9-6.2-2.9H33z"/>
	<path class="st1" d="M79,107.7v-4.1c0-1.5,0.9-2.2,2.7-2.2h21.9c1.6,0,2.3,0.7,2.3,2.2v78.3c0,1.1,0.1,1.8,0.2,2.1
		c0.1,0.3,0.5,0.6,1.2,0.9c1.6,0.6,2.4,2,2.4,4.2c0,2.5-0.1,4-0.3,4.5c-0.2,0.5-1,0.7-2.2,0.7H80.6c-0.6-0.1-1-0.4-1.2-0.9
		c-0.2-0.5-0.3-1.7-0.3-3.8c0-2.5,0.6-3.9,1.7-4.3c1.4-0.5,2.1-1.4,2.1-2.7v-68.2c0-2.6-0.9-4.2-2.8-4.8
		C79.4,109.4,79,108.7,79,107.7z M84.3,93.3l7.9-12.2c1.4-2.1,2.6-3.3,3.6-3.7c1-0.4,4-0.5,9-0.5c4.1,0,6.5,0.1,7.3,0.3
		c0.8,0.2,1.2,0.7,1.2,1.4c0,1-0.6,1.8-1.8,2.5L89.6,93.3H84.3z"/>
	<path class="st1" d="M151,128.4v-13.4c0-3.7-1.5-5.5-4.5-5.5c-4.1,0-6.2,2.8-6.2,8.4c0,3.1-0.4,5.4-1.1,6.7
		c-0.7,1.3-2.3,2.5-4.8,3.4c-2.5,0.9-5.2,1.4-8.1,1.4c-5.9,0-8.8-3.1-8.8-9.4c0-5.9,2.6-10.7,7.7-14.5c5.1-3.7,11.8-5.6,20-5.6
		c5.4,0,10.3,0.7,14.6,2.2c4.3,1.5,7.8,4,10.3,7.5c2.6,3.5,3.9,7.4,3.9,11.6v63.2c0.1,0.3,0.8,1,2.1,2.1c0.9,0.7,1.4,1.7,1.4,3
		c0,1.8-0.3,3.2-0.8,3.9c-0.5,0.8-1.7,1.5-3.7,2.1c-2,0.6-4.4,1-7.4,1c-3.6,0-6.6-0.7-9-2c-2.4-1.3-4.3-3.9-5.6-7.7
		c-4,4.2-7.3,6.8-9.8,8c-2.5,1.2-5.1,1.7-7.7,1.7c-5.9,0-10.4-2.3-13.6-6.9c-3.2-4.6-4.8-12.1-4.8-22.5c0-10.4,1.5-17.7,4.5-21.7
		c3-4,8.9-7.8,17.6-11.2C142.8,132.1,147.4,130.2,151,128.4z M151,137.6c-5.2,2.3-8.2,4.8-9.2,7.7c-1,2.8-1.5,9.3-1.5,19.2
		c0,7.3,0.4,12,1.2,13.9c0.8,1.9,2.2,2.9,4.2,2.9c3.5,0,5.3-2.9,5.3-8.7V137.6z"/>
	<path class="st1" d="M253,107.8v-12c-0.2-2-1.1-3.1-2.7-3.2c-0.9,0-1.4-0.3-1.7-0.6c-0.3-0.4-0.4-1.2-0.6-2.4v-2.7
		c0.2-1,0.3-1.7,0.6-1.9c0.3-0.3,2.1-0.7,2.1-0.7H272c1.3,0,2.1,0.2,2.5,0.6c0.4,0.4,0.5,1.3,0.5,2.8v94.7c0,2,1.1,3.3,3.3,4
		c1.1,0.3,1.7,1,1.7,2.1v3.5c0,1.5-0.7,2.2-2.1,2.2h-23.6c0,0-1.2,0.5-1.4,0.2c-0.2-0.3-0.2-1.5-0.2-3.7c0-0.4,0-1,0.1-1.8
		c-5,4.6-9.6,6.9-13.9,6.9c-14.5,0-21.7-14.7-21.7-44.2c0-21,1.9-34.7,5.8-41.3c3.9-6.5,8.9-9.8,15.1-9.8
		C242.8,100.6,247.7,103,253,107.8z M253,116.1c-2.1-1.3-3.7-1.9-5-1.9c-1.5,0-2.7,0.7-3.6,2.1c-0.9,1.4-1.4,3-1.4,4.7v55.4
		c0,1.7,0.4,3.1,1.3,4.2c0.8,1.1,1.9,1.7,3.2,1.7c1.2,0,2.4-0.5,3.7-1.6c1.2-1.1,1.8-2,1.8-3V116.1z"/>
	<path class="st1" d="M311,147.3v28c0,3.7,0.7,6.6,2.2,8.7c1.4,2.1,3.3,3.1,5.6,3.1c3.5,0,6.3-1.5,8.4-4.4c2.1-2.9,3.2-7,3.3-12.1
		c0-2.7,0.3-4.4,0.8-4.9c0.5-0.5,2.2-0.8,5-0.8c2.5,0,4.1,0.3,4.7,0.8c0.7,0.5,1,1.8,1,3.8c0,7-2.3,13.3-6.9,18.7
		c-4.6,5.5-10.7,8.2-18.3,8.2c-8.7,0-16.1-3.9-22.2-11.7c-6.1-7.8-9.1-19.6-9.1-35.3s2.8-27.7,8.4-35.9c5.6-8.2,13-12.3,22.1-12.3
		c7.8,0,14.1,3.5,18.8,10.4c4.7,6.9,7.1,16.8,7.1,29.5v6.4H311z M320,138.3v-22.6c0-4.3-1.5-6.4-4.5-6.4c-3,0-4.5,2.1-4.5,6.4v22.6
		H320z"/>
</g>
<g class="st0">
	<path class="st1" d="M637.6,84.3h24.2c1.6,0,2.7,0.2,3.2,0.7c0.5,0.5,0.8,1.7,0.8,3.6c0,1.8-0.2,3-0.5,3.7c-0.3,0.7-1.2,1.4-2.5,2
		c-1.2,0.5-1.9,1.1-2.3,1.8c-0.3,0.6-0.5,1.7-0.5,3.1v80.9c0,1.2,0.1,2,0.4,2.6c0.3,0.5,1,1.1,2.3,1.7c1.7,0.8,2.5,1.9,2.5,3.3
		c0,3.5-0.1,5.5-0.3,5.9c-0.2,0.4-1,0.6-2.4,0.6h-29.8c-1.3,0-2-1.1-2-3.3c0-1.9,0.1-3.3,0.2-4.2c0.1-0.9,1-1.7,2.5-2.2
		c1.7-0.7,2.6-1.8,2.6-3.5V125l-12.3,45.3h-7.5L604,126.4v54.5c0,1.8,0.8,3.1,2.5,3.9c2,1,3,2.7,3,5.2c0,2.8-1,4.3-3,4.3H591
		c-1.7,0-2.5-1.4-2.5-4.2c0-2,0.7-3.5,2.1-4.5c1-0.9,1.7-1.6,2-2.1c0.3-0.5,0.4-1.4,0.4-2.8v-78.7c0-2.2-0.2-3.9-0.6-5
		c-0.4-1.2-1.2-2.1-2.5-2.8c-1.4-0.7-2.1-1.5-2.1-2.2l0.1-2.9c0-2.1,0.2-3.5,0.4-4c0.2-0.5,0.9-0.8,1.8-0.8h25.3l10.9,42.1
		L637.6,84.3z"/>
	<path class="st1" d="M674,111.7c-0.6-0.3-1-0.5-1.4-0.6c-1.1-0.5-1.8-1-2.1-1.5c-0.3-0.5-0.4-1.5-0.4-3c0-0.8,0-1.5-0.1-2
		c0-1.4,0.2-2.3,0.6-2.7c0.4-0.4,1.2-0.6,2.6-0.6h21.7c1,0,1.6,0.2,1.8,0.5c0.2,0.3,0.3,1.1,0.3,2.3v67.4c0,5.9,1.5,8.8,4.6,8.8
		c2.4,0,4.1-1,5.4-3.1v-63.3c0-1.6-0.8-2.9-2.4-3.8c-0.8-0.5-1.3-0.9-1.4-1.5c-0.2-0.5-0.2-2.3-0.2-5.3c0-1.3,0.8-2,2.4-2h22.7
		c1,0,1.6,0.1,1.8,0.4c0.2,0.3,0.3,1,0.3,2.2v78c0,1.5,0.6,2.5,1.9,3.1c1.5,0.8,2.3,2.2,2.3,4.1c0,2.7-0.1,4.3-0.3,4.6
		c-0.2,0.4-0.9,0.5-2.2,0.5h-21.2c-1.3,0-2.2-0.2-2.7-0.7c-0.5-0.5-0.7-1.5-0.7-3.1v-1.7c0-1.8,0-2.8-0.1-3.1
		c-7.2,6.4-13.3,9.5-18.3,9.5c-4.3,0-7.8-1.4-10.5-4.3c-2.7-2.9-4.1-8.4-4.1-16.5V111.7z"/>
	<path class="st1" d="M765,147.3v28c0,3.7,0.7,6.6,2.2,8.7c1.5,2.1,3.3,3.1,5.6,3.1c3.5,0,6.3-1.5,8.4-4.4c2.1-2.9,3.2-7,3.3-12.1
		c0-2.7,0.3-4.4,0.8-4.9c0.5-0.5,2.2-0.8,5-0.8c2.5,0,4.1,0.3,4.7,0.8c0.7,0.5,1,1.8,1,3.8c0,7-2.3,13.3-6.9,18.7
		c-4.6,5.5-10.7,8.2-18.3,8.2c-8.7,0-16.1-3.9-22.2-11.7c-6.1-7.8-9.1-19.6-9.1-35.3s2.8-27.7,8.4-35.9c5.6-8.2,13-12.3,22.1-12.3
		c7.8,0,14.1,3.5,18.8,10.4c4.7,6.9,7.1,16.8,7.1,29.5v6.4H765z M774,138.3v-22.6c0-4.3-1.5-6.4-4.5-6.4c-3,0-4.5,2.1-4.5,6.4v22.6
		H774z"/>
	<path class="st1" d="M826,119.5c0.6-1.1,1.3-3,2.1-5.7c1.9-5.9,3.7-9.6,5.4-11.1c1.8-1.5,3.7-2.3,5.9-2.3c2.9,0,5.1,1.3,6.6,3.9
		c1.5,2.6,2.2,5.9,2.2,9.8c0,8.4-2.5,12.7-7.6,12.7c-2.5,0-4.5-1.4-5.9-4.2c-0.8-1.6-1.7-2.4-2.6-2.4c-2.2,0-3.3,2.3-3.3,6.8v54.2
		c0,1.7,0.8,3,2.5,3.8c1.7,0.8,2.5,2,2.5,3.8v3.1c0,1.1-0.1,1.8-0.4,2.1c-0.3,0.3-1,0.4-2.3,0.4h-26c0,0-2.7-0.2-2.4-1.9v-3.8
		c-0.3-1.3,0.1-2.1,0.9-2.5c1.5-0.8,2.3-2,2.1-3.6v-68.9c0.2-1.5-0.3-2.7-1.4-3.4c-1.2-0.7-1.9-1.2-2.1-1.6
		c-0.2-0.4-0.3-1.6-0.3-3.5c0-1.6,0.2-2.7,0.7-3.1s2.4-0.9,2.4-0.9h18.2c0.9,0,1.6,0.2,1.9,0.7c0.3,0.5,0.5,1.6,0.5,3.5V119.5z"/>
	<path class="st1" d="M855,110.3h-3.2c-0.8,0-1.3-0.1-1.5-0.3c-0.2-0.2-0.3-0.7-0.3-1.5v-4.8c0-0.9,0.1-1.5,0.3-1.7
		c0.2-0.3,0.8-0.5,1.8-0.6c3.3-0.5,6.6-2.3,9.9-5.4c3.3-3.1,5.3-6.4,5.9-9.9c0.2-1.3,0.5-2,0.8-2.3c0.3-0.3,1-0.4,2.1-0.4h4.4
		c1.2,0,1.8,0.8,1.8,2.4v15.6h4.5c1.7,0,2.5,0.7,2.5,2.2v4.7c0,1.4-0.8,2.1-2.5,2.1H878V182c0,2.4,1.1,4.2,3.3,5.3
		c1.1,0.5,1.8,1.1,2.1,1.9c0.3,0.7,0.5,2.1,0.5,4c0,1.2-0.1,1.9-0.2,2c-0.2,0.1-0.7,0.2-1.7,0.2H860c-3.3-2.9-5-7.4-5-13.3V110.3z"
		/>
	<path class="st1" d="M919.7,100.6c8.6,0,15.7,3.8,21.5,11.5c5.7,7.7,8.6,19.1,8.6,34.2c0,16.3-2.9,28.7-8.8,37
		c-5.8,8.4-13.1,12.5-21.8,12.5c-6,0-11.2-1.9-15.7-5.7c-4.4-3.8-7.8-8.9-10.2-15.3c-2.4-6.4-3.6-15.1-3.6-26.2
		c0-15.8,2.7-27.8,8.2-35.9C903.5,104.6,910.7,100.6,919.7,100.6z M925,118.5c0-5.5-1.6-8.3-4.8-8.3c-3.5,0-5.2,3.4-5.2,10.1v55.4
		c0,6.7,1.6,10.1,4.7,10.1c3.5,0,5.3-3.4,5.3-10.1V118.5z"/>
	<path class="st1" d="M992.4,103.1l3.8,18.9c0.1,0.6,0.1,1.1,0.1,1.6c0,1.3-1.2,1.9-3.7,1.9c-1.6,0-2.8-0.2-3.6-0.6
		c-0.8-0.4-1.6-1.5-2.6-3.3c-1.1-2.1-2.8-4.6-5-7.5c-2.2-2.9-4.2-4.3-6-4.3c-0.7,0-1.3,0.3-1.8,1c-0.5,0.6-0.8,1.4-0.8,2.3
		c0,2.3,3.3,8.9,10,19.7c5.7,9.4,9.6,16.8,11.7,22.2c2.1,5.4,3.1,11.4,3.1,18.2c0,7.2-1.6,12.7-4.7,16.7c-3.1,4-6.7,6-10.9,6
		c-2.6,0-5.4-1-8.3-2.9c-1.6-1-2.7-1.6-3.2-1.6c-0.6,0-1,0.5-1.1,1.6c-0.2,1.2-0.5,2-0.8,2.4s-1.5,0.5-3.6,0.5c-1.6,0-2.6-0.2-3-0.7
		c-0.5-0.5-0.8-1.3-1-2.4l-3.4-19.1c-0.1-0.9-0.2-1.5-0.2-1.7c0-1.3,1.5-1.9,4.6-1.9c1.6,0,2.7,0.2,3.3,0.6c0.6,0.4,1.4,1.6,2.4,3.6
		c3.6,7.4,6.9,11.1,10.1,11.1c2.1,0,3.1-1.2,3.1-3.7c0-2.2-0.8-4.9-2.3-8.1c-1.5-3.2-4.5-8.5-8.9-15.9c-4.7-7.8-8-14.4-10.1-19.7
		c-2.1-5.3-3.1-10.6-3.1-15.9c0-7.2,1.5-12.6,4.7-16.2c3.1-3.6,6.9-5.3,11.3-5.3c2.3,0,5,0.8,7.9,2.4c1.5,0.8,2.5,1.2,3.1,1.2
		c0.7,0,1.2-0.5,1.3-1.4c0.2-1,0.5-1.6,1.1-1.8c0.5-0.2,1.7-0.3,3.5-0.3c1.1,0,1.9,0.1,2.2,0.4C991.8,101.2,992.2,101.9,992.4,103.1
		z"/>
</g>
<path class="st2" d="M462.5,122.1c2.6,0,4.8,5.5,4.8,12.2c0,1.4-0.1,2.9-0.3,4.3c2.3,3.6,3.8,9.9,3.8,17.1c0,4-0.5,8-1.6,11.9
	c-1.3,4.4-3.5,5.3-3.5,9.3c0,4.6-1.4,8.3-3.2,8.3s-3.2-3.7-3.2-8.3c0-4-2.3-5-3.5-9.5c-1-3.8-1.5-7.8-1.5-11.7
	c0-7.2,1.5-13.5,3.8-17.1c-0.2-1.4-0.3-2.8-0.3-4.3C457.7,127.6,459.9,122.1,462.5,122.1z"/>
<path class="st2" d="M462.5,123.8c3.1,0,5.7-2.1,5.7-4.7s-2.6-4.7-5.7-4.7s-5.7,2.1-5.7,4.7S459.3,123.8,462.5,123.8z"/>
<path class="st2" d="M458.6,118.4c0.8,0,1.5-1.1,1.5-2.3s-0.7-2.3-1.5-2.3s-1.5,1-1.5,2.3S457.8,118.4,458.6,118.4z"/>
<path class="st2" d="M466.4,118.4c0.8,0,1.5-1.1,1.5-2.3s-0.6-2.3-1.5-2.3s-1.5,1-1.5,2.3S465.6,118.4,466.4,118.4z"/>
<path class="st1" d="M463,114.4c0,0.3-0.3,0.5-0.6,0.4c-0.3,0-0.5-0.3-0.4-0.6c0.4-2.4,1.9-4.2,3.5-6.1c1.8-2.2,3.6-4.4,3.7-7.6
	c0-0.3,0.2-0.5,0.5-0.5s0.5,0.2,0.5,0.5c0,3.5-2,5.9-3.9,8.2C464.8,110.6,463.3,112.3,463,114.4z"/>
<path class="st2" d="M469.6,102.3c0.6,0,1.1-0.8,1.1-1.8s-0.5-1.8-1.1-1.8s-1.1,0.8-1.1,1.8S469,102.3,469.6,102.3z"/>
<path class="st1" d="M463,114.3c0,0.3-0.1,0.5-0.4,0.6c0,0,0,0,0,0c-0.3,0-0.5-0.1-0.6-0.4c0,0,0,0,0,0c-0.4-2.1-1.8-3.8-3.2-5.6
	c-1.9-2.3-3.9-4.7-3.9-8.2c0-0.3,0.2-0.5,0.5-0.5s0.5,0.2,0.5,0.5c0,3.2,1.9,5.4,3.7,7.6C461.1,110.1,462.6,111.9,463,114.3z"/>
<path class="st2" d="M455.4,102.3c0.6,0,1.1-0.8,1.1-1.8s-0.5-1.8-1.1-1.8s-1.1,0.8-1.1,1.8S454.8,102.3,455.4,102.3z"/>
<path class="st2" d="M463.5,139.8c-3.5-14.4,40.6-49,71.2-53.9C558.9,82,591,87,572.6,107s-20.8,20.4-24.4,35.4s-10,21.3-26.1,12.3
	C503.1,144.2,467.9,157.7,463.5,139.8z"/>
<path class="st2" d="M524.8,159.2c11.7,13.2,16.6,30.9,5.3,42.6c-14.6,15.1-36.9,21.3-61.8-43.6C452.3,116,507.9,140,524.8,159.2z"
	/>
<path class="st2" d="M461.4,139.8c3.5-14.4-40.6-49-71.2-53.9C366,82,333.9,87,352.3,107s20.8,20.4,24.4,35.4s10,21.3,26.1,12.3
	C421.8,144.2,457.1,157.7,461.4,139.8z"/>
<path class="st2" d="M400.1,159.2c-11.7,13.2-16.6,30.9-5.3,42.6c14.6,15.1,36.9,21.3,61.8-43.6C472.7,116,417,140,400.1,159.2z"/>
</svg>
