<svg id="Layer_1" data-name="Layer 1" xmlns="http://www.w3.org/2000/svg" viewBox="0 0 1000 1000"><defs><style>.cls-1,.cls-2{fill:#f15a24;}.cls-1,.cls-3{fill-rule:evenodd;}.cls-3{fill:#333;}</style></defs><title>Monarch</title><path class="cls-1" d="M500,345.11c11.4,0,20.64,32.47,20.64,72.52a240.35,240.35,0,0,1-1.32,25.48c9.8,21.59,16.28,59.11,16.28,101.78,0,26.46-2.49,50.94-6.72,70.86-5.59,26.34-15,31.65-15,55.45,0,27.27-6.22,49.37-13.9,49.37s-13.9-22.1-13.9-49.37c0-23.76-9.73-30-15.25-56.71-4.06-19.69-6.45-43.7-6.45-69.6,0-42.67,6.48-80.19,16.28-101.78a240.35,240.35,0,0,1-1.32-25.48C479.36,377.58,488.6,345.11,500,345.11Z"/><path class="cls-1" d="M500,354.94c13.64,0,24.77-12.56,24.77-27.95S513.64,299,500,299s-24.77,12.56-24.77,28S486.36,354.94,500,354.94Z"/><path class="cls-1" d="M483.19,323.31c3.48,0,6.32-6.28,6.32-14s-2.84-14-6.32-14-6.32,6.28-6.32,14S479.71,323.31,483.19,323.31Z"/><path class="cls-1" d="M516.81,323.31c3.48,0,6.32-6.28,6.32-14s-2.84-14-6.32-14-6.32,6.28-6.32,14S513.33,323.31,516.81,323.31Z"/><path class="cls-2" d="M502.14,299.52c-.19,1.63-1.31,2.72-2.5,2.45s-2-1.81-1.78-3.43c1.75-14.18,8.25-25.07,14.93-36.26,7.71-12.93,15.69-26.3,15.9-45.21,0-1.64,1-2.95,2.21-2.93s2.15,1.38,2.13,3c-.24,21-8.7,35.17-16.89,48.89C509.83,276.62,503.7,286.9,502.14,299.52Z"/><path class="cls-1" d="M530.86,227.58c2.61,0,4.73-4.7,4.73-10.46s-2.12-10.47-4.73-10.47-4.73,4.71-4.73,10.47S528.25,227.58,530.86,227.58Z"/><path class="cls-2" d="M502.14,298.54c.2,1.62-.6,3.16-1.78,3.43s-2.31-.82-2.5-2.45c-1.56-12.62-7.69-22.9-14-33.46-8.19-13.72-16.65-27.9-16.89-48.89,0-1.65.94-3,2.13-3s2.19,1.29,2.21,2.93c.21,18.91,8.19,32.28,15.9,45.21C493.89,273.47,500.39,284.36,502.14,298.54Z"/><path class="cls-1" d="M469.14,227.58c2.61,0,4.73-4.7,4.73-10.46s-2.12-10.47-4.73-10.47-4.73,4.71-4.73,10.47S466.53,227.58,469.14,227.58Z"/><path class="cls-3" d="M504.53,450.15C489.33,364.74,680.3,158.71,812.36,129.6c104.77-23.08,243.68,7,164,125.75S886.28,376.43,870.93,466,827.64,592.28,758,539.11C675.88,476.35,523.47,556.56,504.53,450.15Z"/><path class="cls-1" d="M769.6,565.53c50.49,78.6,71.7,183.74,23.09,252.92-63,89.62-159.36,126.71-267.08-259.23C455.79,309.06,696.54,451.79,769.6,565.53Z"/><path class="cls-3" d="M495.47,450.15c15.2-85.41-175.77-291.44-307.83-320.55C82.87,106.52-56,136.6,23.6,255.35S113.72,376.42,129.07,466,172.37,592.28,242,539.11C324.12,476.35,476.53,556.56,495.47,450.15Z"/><path class="cls-1" d="M230.4,565.53c-50.49,78.6-71.7,183.74-23.09,252.92,63,89.62,159.36,126.71,267.08-259.23C544.21,309.06,303.46,451.79,230.4,565.53Z"/></svg>