<svg id="Layer_1" data-name="Layer 1" xmlns="http://www.w3.org/2000/svg" viewBox="0 0 1000 1000"><defs><style>.cls-1{fill:#fff;}</style></defs><title>ORIGIN</title><path class="cls-1" d="M501.9,227.52c23.92-24.12,51.07-40.94,83.28-48.21a195.08,195.08,0,0,1,41.47-5.24c82.66-.48,165.34-.33,248-.2,46.37.07,80.33,33.75,80.37,80q.18,248,0,496c0,46.3-33.89,80.05-80.23,80.14-80.72.16-161.43,0-242.15.05-50.24,0-82.12,31-83.83,81.51-.82,24.19-21.87,43.55-47.3,43.49-24.67-.06-45.63-19.64-46.43-43.38-1.74-51-33.5-81.61-84.69-81.62q-119.13,0-238.25,0c-50.24,0-83.3-32.93-83.31-83q0-245.08,0-490.17c0-50.16,33-83.05,83.21-83.07,75.19,0,150.39,1.08,225.55-.37C413,172.4,461.67,186.46,501.9,227.52ZM143,736.33h11.32q109.85,0,219.68-.05a181.77,181.77,0,0,1,65.81,11.94c4.76,1.81,9.4,3.91,15.25,6.35V743.85q0-196.24,0-392.48c0-50.92-32.75-83.77-83.47-83.79q-108.87,0-217.73,0H143Zm405.81,17.88c2.48-.82,4-1.17,5.37-1.8,26.21-12,53.77-16.39,82.53-16.22,71.27.42,142.54.14,213.81.14h10V267.58H850q-108.85,0-217.72,0c-50.72,0-83.47,32.87-83.47,83.78q0,196.25,0,392.48Z"/></svg>