<svg id="Layer_1" data-name="Layer 1" xmlns="http://www.w3.org/2000/svg" viewBox="0 0 1000 1000"><defs><style>.cls-1{fill:#fff;}</style></defs><title>receta</title><path class="cls-1" d="M626.07,880c21,13,30.21,30.53,25.33,53.63-4.57,21.57-22.73,36.13-46.12,36.24q-124,.55-248,0c-22.69-.1-39.93-13.93-45.71-34.35-5.66-20,2-39.58,20.6-52.55a18.64,18.64,0,0,0,2.05-1.57c-26.48-15.6-54.85-29.25-79.81-47.56C148.55,756.24,94.5,650.82,90.8,519.7c-.82-29.18,19-49.14,48.42-49.58,18.81-.28,37.63-.05,56.48-.05-3-12.34-6.57-23.74-8.43-35.41-3.87-24.37,1.4-47.33,13.95-68.35,3.44-5.75,2.76-9.57-.29-14.81q-58.26-100.4-116.18-201c-15.37-26.68-7-56.49,19-68.75,22.6-10.66,47.88-2.49,61.23,20.41,24.74,42.41,49.15,85,73.7,127.53,14.64,25.34,29.4,50.61,43.83,76.07,2.71,4.78,5.61,6.68,11.36,6.69,43.08.05,75.4,19.29,97.14,56.21,17.66,30,35.28,60,52,90.49,4.82,8.78,10.27,11.62,19.86,11.11,14.93-.79,29.94-.48,44.9-.08,6.45.17,8.44-2.15,10.2-8.4,18.84-66.89,60-112.7,127.78-132.34,18.84-5.45,38.08-4.73,56.75,1.45,5.72,1.89,8.59,1.13,11.6-4.2q24-42.43,48.77-84.47c2.73-4.64,2.56-7.49-.86-11.88-17.37-22.35-19.2-46.46-5.4-71.07q26.25-46.8,53.65-92.93c18.23-30.79,55.58-40.77,85.45-23.4,30.06,17.49,40.13,54.42,22.66,85.62-17.64,31.48-35.53,62.85-54.17,93.75-14.52,24.07-36.49,34-64.63,30.58-2.87-.35-7.58,1.73-9,4.13Q765,300.24,740.3,344c-1.18,2.07-1.09,6.68.38,8.16,32.12,32.38,43.69,71.4,37.69,116.91a71.19,71.19,0,0,0,7.7.93c12.36.09,24.74-.12,37.1.09,29.61.48,48.77,20,48.59,49.37-.37,60.54-13.92,118-41.28,172Q766,818.66,635.18,875.82C632.51,877,629.88,878.26,626.07,880ZM469.43,502c9.65,37.84,3.85,51.19-30.54,71q-46,26.57-92.07,53.17c-28.27,16.25-54.08,9.38-70.43-18.77-19.1-32.9-38.19-65.82-57-98.89-2.92-5.11-6-7.42-12.13-7.33-22.13.36-44.27,0-66.4.19-13.71.09-19,5.45-18.86,19,.41,42,7.24,82.83,22,122.25,59.1,157.85,229,256,396.19,229,171.15-27.7,298.68-176.53,300.27-350.43.13-14.28-4.91-19.66-19-19.82-13.67-.14-27.36.36-41-.2-7.27-.3-10.54,1.91-13.22,9.06-19.07,50.84-53.16,87.52-104.8,106-69.81,24.93-129.59-8.56-145.53-81-2.36-10.71-3.26-21.74-4.93-33.23ZM216.85,428.7c2.26,6.59,4.89,20.31,11.33,31.93,24.58,44.35,50.34,88.06,75.77,132,6.86,11.82,14.24,13.89,25.88,7.22q51.21-29.32,102.24-59c12.16-7.06,14-14.39,6.93-26.73-25.14-43.68-50.1-87.46-75.7-130.87-17.18-29.13-43.43-42.55-77-39.07-12.88,1.34-19.65-3.09-25.75-13.76C221,261.24,181,192.35,141.2,123.36,133,109.11,124.69,105,115.38,110.55c-9.07,5.41-9.53,14.07-1.45,28.06q60.24,104.32,120.63,208.55c5.86,10.07,6.19,18.1-1.47,27.42C222,388.08,217.51,404.34,216.85,428.7ZM583.09,583.25c14.52-2.58,25.06-8.14,38.82-23,42.57-45.81,71.43-99.41,88.11-159.52,2.19-7.91,2.19-16.72,1.69-25-.46-7.7-5.32-11.11-12.83-6.71-5.85,3.43-12.1,6.68-16.91,11.32-46,44.42-78.94,97-96.89,158.5C581,552.89,577.53,567.81,583.09,583.25ZM859.72,65.9c-6.08,0-15.44,4.36-21.11,14-18.91,32.17-37.71,64.42-55.85,97-8.15,14.65-2.36,32.3,11.73,40.66s32.79,5.07,41.33-9.12c19.58-32.53,38.89-65.26,56.83-98.7C903.52,89.55,887.66,65.94,859.72,65.9ZM481.48,907.57c-41,0-82-.09-123,.06-11,0-17.39,6.1-17.34,15.48,0,9,6.15,14.82,16.49,15.62,1.94.15,3.9.07,5.85.07q117.62,0,235.22,0c4.18,0,8.6-.06,12.51-1.33,11.23-3.65,14.24-18.82,4.8-25.81-3.77-2.79-9.6-3.85-14.51-3.88C561.51,907.43,521.49,907.56,481.48,907.57ZM656.71,359.72c-41.36,7-69.13,32.48-89.65,66.66-21.86,36.41-31.5,75.08-15.65,117Q579.12,437.17,656.71,359.72Zm-23.5,232.07c84.64-15.72,135-115.82,107-184.83C722.2,478.81,686.92,539.5,633.21,591.79Z"/><path class="cls-1" d="M311.65,767.05c-4.24,5.22-6.88,11.61-10.95,12.71-5.42,1.47-13.39.81-17.77-2.38a291.44,291.44,0,0,1-68.9-71c-9.52-13.88-17.85-28.61-26.15-43.27-5.72-10.1-3.52-19.2,4.6-23.71,8.58-4.77,17.39-1.44,22.91,9.36A308.84,308.84,0,0,0,300.8,752.46C305,755.76,307.44,761.26,311.65,767.05Z"/><path class="cls-1" d="M355.84,798a15.16,15.16,0,1,1-30.3-.37,15.15,15.15,0,0,1,30.3.37Z"/></svg>