<svg id="Layer_1" data-name="Layer 1" xmlns="http://www.w3.org/2000/svg" viewBox="0 0 1000 1000"><defs><style>.cls-1{fill:#fff;}</style></defs><title>RIGHT</title><path class="cls-1" d="M9.45,775.94c34.67-54.86,86.43-81,142.55-100.59,61.83-21.57,126-30.91,191-36.88,80.55-7.41,161.3-4,242-5.69,73.6-1.5,146.87-7.27,219.21-21.46,45-8.83,89.49-20,130.19-42.33,23.13-12.66,43.8-28.14,56.34-52.29.6-1.15,1.28-2.26,1.83-3.44,10.76-23,9.55-27.45-11.16-41.15-15.7-10.39-31.38-20.81-47.54-31.53C954,370.42,974.12,300.62,995,228c-7.41,9.94-12.63,17.91-18.8,25.06-24.32,28.21-55.37,47-89,61.79-54.61,24-112.34,36.23-171.11,44.55-91.56,13-183.68,11.08-275.75,11.49-80.83.37-161.23,6.42-240.69,21.74-45.06,8.7-89.46,20.06-130.18,42.34-23.14,12.67-43.71,28.26-56.26,52.38-.9,1.72-1.94,3.4-2.68,5.19C1.25,514.91,2.08,518,21,532.77,34.81,543.58,48.28,554.92,62.61,565c6.76,4.78,6.81,9.18,4.69,16.2-18.44,60.94-36.54,122-54.73,183C11.67,767.26,10.94,770.32,9.45,775.94Z"/></svg>